<svg width="917" height="91" viewBox="0 0 917 91" fill="none" xmlns="http://www.w3.org/2000/svg">
<path fill-rule="evenodd" clip-rule="evenodd" d="M889.625 2.51261V89H916.035V2.51261H889.625ZM774.824 2.51261V89H842.634C848.344 89 853.46 88.5241 857.743 87.5724C862.025 86.6207 865.475 85.0742 868.331 82.6949C871.186 80.4345 873.208 77.3415 874.636 73.5346C875.944 69.7277 876.658 64.8502 876.658 58.9019C876.658 53.1916 875.944 48.3141 874.636 44.5072C873.208 40.7003 871.186 37.7262 868.331 35.4659C865.475 33.3245 862.025 31.778 857.743 30.8262C853.46 29.9935 848.344 29.5176 842.634 29.5176H801.234V2.51261H774.824ZM801.867 28.8848V1.87982H774.191V89.6328H842.634C848.377 89.6328 853.54 89.1545 857.88 88.1902C862.234 87.2227 865.781 85.6416 868.73 83.1861C871.693 80.8378 873.772 77.64 875.228 73.7568L875.231 73.7486L875.234 73.7403C876.572 69.8477 877.291 64.896 877.291 58.9019C877.291 53.1441 876.572 48.1929 875.234 44.3015L875.231 44.2932L875.228 44.285C873.768 40.3908 871.684 37.3139 868.723 34.9697L868.717 34.9646L868.71 34.9596C865.772 32.7563 862.237 31.1766 857.88 30.2085L857.872 30.2067L857.863 30.2051C853.535 29.3633 848.378 28.8848 842.634 28.8848H801.867ZM841.207 68.4191H801.234V49.6227H841.207C844.181 49.6227 846.322 50.4554 847.631 52.002C848.939 53.6675 849.653 56.0468 849.653 59.3778C849.653 65.445 846.798 68.4191 841.207 68.4191ZM847.14 52.4018C848.327 53.9175 849.02 56.1372 849.02 59.3778C849.02 62.3231 848.327 64.3996 847.066 65.7401C845.812 67.0733 843.894 67.7863 841.207 67.7863H801.867V50.2555H841.207C844.064 50.2555 845.992 51.052 847.14 52.4018ZM888.992 1.87982H916.668V89.6328H888.992V1.87982Z" fill="white" fill-opacity="0.1"/>
<path fill-rule="evenodd" clip-rule="evenodd" d="M669.629 2.78503V24.3211H705.794V89.6328H733.47V24.3211H769.635V1.87982H669.629V2.51261H669.927L669.629 2.78503ZM732.837 23.6883H769.003V2.51261H670.262V23.6883H706.427V89H732.837V23.6883Z" fill="white" fill-opacity="0.1"/>
<path fill-rule="evenodd" clip-rule="evenodd" d="M562.74 2.51261V89H589.15V56.2847H600.214L639.354 89H676.114L623.174 45.221L669.927 2.51261H634.833L600.214 34.6331H589.15V2.51261H562.74ZM589.783 34.0003V1.87982H562.107V89.6328H589.783V56.9175H599.984L639.124 89.6328H677.872L624.139 45.1972L670.262 3.06406V2.51261H670.866L671.558 1.87982H634.584L599.966 34.0003H589.783Z" fill="white" fill-opacity="0.1"/>
<path fill-rule="evenodd" clip-rule="evenodd" d="M512.982 2.51261H479.315L432.086 89H460.876L469.322 74.6053H522.023L530.351 89H559.378L512.982 2.51261ZM521.658 75.2381L529.986 89.6328H560.436L513.361 1.87982H478.94L431.02 89.6328H461.238L469.684 75.2381H521.658ZM512.506 53.7864H479.315L495.732 23.2125L512.506 53.7864ZM511.437 53.1536L495.738 24.5389L480.373 53.1536H511.437Z" fill="white" fill-opacity="0.1"/>
<path fill-rule="evenodd" clip-rule="evenodd" d="M385.618 23.6883V89H412.029V23.6883H448.194V2.51261H349.453V23.6883H385.618ZM412.661 24.3211H448.827V1.87982H348.82V24.3211H384.986V89.6328H412.661V24.3211Z" fill="white" fill-opacity="0.1"/>
<path fill-rule="evenodd" clip-rule="evenodd" d="M236.578 2.51261V89H262.988V55.214H317.117V89H343.646V2.51261H317.117V34.2762H262.988V2.51261H236.578ZM263.621 33.6434V1.87982H235.945V89.6328H263.621V55.8468H316.484V89.6328H344.279V1.87982H316.484V33.6434H263.621Z" fill="white" fill-opacity="0.1"/>
<path fill-rule="evenodd" clip-rule="evenodd" d="M187.284 67.1977L187.295 67.1964C190.073 66.8491 192.362 66.0422 194.176 64.9084C195.953 63.7978 197.178 62.2457 197.966 60.2191C198.762 58.1732 199.232 55.4017 199.232 51.883V39.6296C199.232 36.2314 198.762 33.4594 197.966 31.4125C197.172 29.3708 195.941 27.7074 194.176 26.6042C192.377 25.4798 190.095 24.7846 187.284 24.3149C184.339 23.9621 180.8 23.7263 176.667 23.7263H159.774C155.518 23.7263 151.861 23.9625 149.037 24.3149C146.128 24.7814 143.838 25.5908 142.026 26.7232C140.261 27.8266 139.038 29.4847 138.365 31.5022L138.362 31.5116L138.359 31.5209C137.564 33.679 137.208 36.5668 137.208 40.1055V52.1209C137.208 55.5411 137.565 58.1714 138.462 60.1915L138.468 60.2052L138.474 60.2191C139.262 62.2457 140.487 63.7978 142.264 64.9084C144.077 66.0411 146.364 66.8483 149.261 67.196L149.276 67.1977L149.29 67.2001C152.089 67.6666 155.612 67.7863 159.893 67.7863H176.667C180.826 67.7863 184.352 67.6668 187.273 67.1994L187.284 67.1977ZM148.948 23.6884C151.803 23.3315 155.491 23.0935 159.774 23.0935H176.667C180.83 23.0935 184.399 23.3315 187.373 23.6884C190.229 24.1642 192.608 24.878 194.511 26.0676C196.415 27.2573 197.723 29.0418 198.556 31.1831C199.389 33.3245 199.865 36.1796 199.865 39.6296V51.883C199.865 55.4519 199.389 58.3071 198.556 60.4485C197.723 62.5898 196.415 64.2553 194.511 65.445C192.608 66.6346 190.229 67.4674 187.373 67.8243C184.399 68.3001 180.83 68.4191 176.667 68.4191H159.893C155.61 68.4191 152.041 68.3001 149.186 67.8243C146.212 67.4674 143.832 66.6346 141.929 65.445C140.025 64.2553 138.717 62.5898 137.884 60.4485C136.932 58.3071 136.575 55.5709 136.575 52.1209V40.1055C136.575 36.5365 136.932 33.5624 137.765 31.3021C138.479 29.1607 139.788 27.3763 141.691 26.1866C143.594 24.997 145.974 24.1642 148.948 23.6884ZM118.713 6.99885C122.384 4.3068 126.892 2.60991 132.449 1.88514C137.957 1.16666 144.648 0.809143 152.636 0.809143H183.686C191.554 0.809143 198.364 1.16664 203.872 1.88514C209.425 2.60938 214.053 4.30481 217.727 6.99885L217.735 7.00507L217.744 7.01156C221.173 9.70607 223.624 13.1409 225.091 17.54C226.547 21.9072 227.265 27.2141 227.265 33.6814V57.8312C227.265 64.297 226.547 69.7234 225.091 74.0916C223.625 78.4879 221.174 81.9278 217.735 84.5074C214.054 87.3288 209.3 89.0229 203.753 89.7465C198.24 90.4657 191.545 90.7035 183.686 90.7035H152.747C148.827 90.7035 145.249 90.7035 141.906 90.5841C138.567 90.4648 135.566 90.226 132.794 89.745C129.906 89.383 127.366 88.7792 125.06 87.93C122.631 87.0794 120.548 85.9799 118.703 84.5059C115.043 81.8189 112.463 78.3851 111.111 74.0917C109.652 69.9494 109.057 64.6356 109.057 58.3071V34.7521C109.057 28.0646 109.652 22.3993 111.108 17.9072C112.456 13.4985 115.032 9.82103 118.703 7.00695L118.713 6.99885ZM111.712 18.097C110.284 22.4987 109.689 28.09 109.689 34.7521V58.3071C109.689 64.6122 110.284 69.8467 111.712 73.8915C113.02 78.0553 115.519 81.3863 119.088 84.0035C120.872 85.4311 122.895 86.5018 125.274 87.3345C127.534 88.1673 130.032 88.7621 132.888 89.119C135.624 89.5948 138.598 89.8328 141.929 89.9517C145.26 90.0707 148.829 90.0707 152.755 90.0707H183.686C191.537 90.0707 198.199 89.8328 203.672 89.119C209.144 88.4052 213.784 86.7397 217.353 84.0035C220.684 81.5052 223.063 78.1742 224.49 73.8915C225.918 69.6088 226.632 64.2553 226.632 57.8312V33.6814C226.632 27.2573 225.918 22.0228 224.49 17.7401C223.063 13.4574 220.684 10.1264 217.353 7.50914C213.784 4.89192 209.263 3.22641 203.791 2.51262C198.318 1.79883 191.537 1.44193 183.686 1.44193H152.636C144.665 1.44193 138.003 1.79883 132.531 2.51262C127.058 3.22641 122.657 4.89192 119.088 7.50914C115.519 10.2453 113.02 13.8143 111.712 18.097Z" fill="white" fill-opacity="0.1"/>
<path fill-rule="evenodd" clip-rule="evenodd" d="M0.330057 2.51261V89H26.7402V56.2847H37.804L76.9434 89H113.703L60.7642 45.221L107.517 2.51261H72.4227L37.804 34.6331H26.7402V2.51261H0.330057ZM27.373 34.0003V1.87982H-0.302734V89.6328H27.373V56.9175H37.5743L76.7137 89.6328H115.462L61.7284 45.1972L109.148 1.87982H72.1744L37.5556 34.0003H27.373Z" fill="white" fill-opacity="0.1"/>
</svg>
