<svg width="52" height="52" viewBox="0 0 52 52" fill="none" xmlns="http://www.w3.org/2000/svg">
<path d="M23.0404 0H28.8996C29.7243 0.35956 30.6998 0.41856 31.5759 0.603708C32.107 0.719819 32.634 0.852219 33.1569 1.00091C33.6799 1.1496 34.1977 1.31429 34.7105 1.49499C34.9274 1.57237 35.1432 1.65263 35.3578 1.73576C35.5727 1.81888 35.7863 1.90484 35.9986 1.99365C36.2112 2.08245 36.4225 2.17407 36.6324 2.26849C36.8426 2.3629 37.0515 2.4601 37.2589 2.56007C37.4663 2.66004 37.6724 2.76275 37.8773 2.8682C38.0819 2.97365 38.2851 3.0818 38.4869 3.19266C38.6889 3.30351 38.8894 3.41702 39.0882 3.5332C39.2869 3.64938 39.4842 3.7682 39.6799 3.88964C39.8757 4.01105 40.0697 4.13504 40.2619 4.26162C40.4544 4.38822 40.6452 4.51734 40.8341 4.64898C41.0231 4.78064 41.2103 4.91479 41.3958 5.05142C41.5811 5.18806 41.7646 5.32712 41.9463 5.46861C42.1281 5.61013 42.308 5.75404 42.486 5.90034C42.6638 6.04661 42.8397 6.19524 43.0137 6.34621C43.1875 6.49718 43.3594 6.65043 43.5292 6.80598C43.6993 6.96152 43.8672 7.11928 44.0328 7.27926C44.1985 7.43927 44.362 7.60144 44.5235 7.76579C44.6847 7.93013 44.8438 8.0966 45.0008 8.2652C45.1579 8.43377 45.3125 8.60439 45.4649 8.77707C45.6172 8.94978 45.7674 9.12446 45.9153 9.30114C46.063 9.47783 46.2085 9.65645 46.3517 9.837C46.4947 10.0175 46.6353 10.2 46.7734 10.3842C46.9115 10.5685 47.0473 10.7546 47.1808 10.9425C47.314 11.1304 47.4447 11.32 47.5727 11.5114C47.7011 11.7028 47.8268 11.8958 47.95 12.0905C48.073 12.2853 48.1935 12.4816 48.3115 12.6795C48.4293 12.8774 48.5445 13.0768 48.6569 13.2778C48.7696 13.4788 48.8796 13.6812 48.987 13.8852C49.0941 14.089 49.1985 14.2943 49.3002 14.501C49.4021 14.7077 49.5012 14.9157 49.5973 15.125C49.6937 15.3343 49.7871 15.5449 49.8776 15.7567C49.9684 15.9684 50.0562 16.1814 50.1412 16.3955C50.22 16.5922 50.2965 16.7898 50.3707 16.9883C50.4449 17.1869 50.5165 17.3863 50.5856 17.5866C50.6549 17.7869 50.7216 17.9881 50.7858 18.1901C50.8499 18.392 50.9117 18.5947 50.9709 18.7982C51.0302 19.0017 51.087 19.2058 51.1414 19.4107C51.1955 19.6156 51.2472 19.8211 51.2964 20.0272C51.3454 20.2334 51.3919 20.4401 51.436 20.6474C51.4801 20.8547 51.5217 21.0625 51.5606 21.2709C51.5996 21.4792 51.636 21.688 51.6698 21.8972C51.7034 22.1064 51.7345 22.316 51.7632 22.526C51.7919 22.736 51.818 22.9463 51.8413 23.1569C51.8649 23.3676 51.8857 23.5785 51.9039 23.7896C51.9221 24.0008 51.9378 24.2121 51.9508 24.4236C51.9639 24.6352 51.9744 24.8468 51.9823 25.0586C51.9903 25.2704 51.9955 25.4823 51.9981 25.6942C52.0006 25.9061 52.0006 26.118 51.9981 26.33C51.9955 26.5419 51.9903 26.7537 51.9823 26.9655C51.9746 27.1773 51.9642 27.389 51.9512 27.6005C51.9381 27.812 51.9225 28.0234 51.9043 28.2345C51.8861 28.4457 51.8652 28.6566 51.8416 28.8672C51.8183 29.0779 51.7923 29.2882 51.7636 29.4981C51.7351 29.7082 51.704 29.9178 51.6702 30.127C51.6363 30.3362 51.5999 30.545 51.561 30.7533C51.5222 30.9617 51.4808 31.1695 51.4367 31.3768C51.3926 31.5841 51.3461 31.7908 51.2971 31.9969C51.2479 32.2031 51.1962 32.4087 51.1421 32.6135C51.0879 32.8184 51.0312 33.0226 50.972 33.2261C50.9127 33.4296 50.851 33.6323 50.7868 33.8342C50.7227 34.0362 50.6559 34.2374 50.5867 34.4377C50.5176 34.638 50.446 34.8375 50.3718 35.0361C50.2978 35.2345 50.2213 35.4321 50.1422 35.6289C50.0633 35.8255 49.982 36.0211 49.8983 36.2158C49.812 36.4147 49.7233 36.6125 49.6323 36.8093C49.5411 37.0061 49.4475 37.2016 49.3516 37.3959C49.2557 37.5903 49.1574 37.7835 49.0566 37.9754C48.9558 38.1675 48.8527 38.3583 48.7472 38.5476C48.6418 38.7371 48.534 38.9252 48.4239 39.1117C48.3137 39.2985 48.2013 39.4838 48.0865 39.6678C47.9717 39.8517 47.8547 40.0343 47.7355 40.2154C47.6163 40.3964 47.4948 40.5759 47.3712 40.754C47.2475 40.9321 47.1216 41.1086 46.9935 41.2834C46.8655 41.4583 46.7353 41.6316 46.603 41.8034C46.4705 41.975 46.336 42.145 46.1995 42.3133C46.0628 42.4816 45.924 42.6483 45.7834 42.8133C45.6427 42.9781 45.5 43.1412 45.3554 43.3025C45.2107 43.4641 45.0639 43.6236 44.9151 43.7812C44.7665 43.939 44.6159 44.095 44.4633 44.249C44.3107 44.4029 44.1562 44.5548 43.9999 44.7049C43.8436 44.8553 43.6854 45.0035 43.5254 45.1497C43.3653 45.296 43.2035 45.4403 43.04 45.5825C42.8764 45.7246 42.7111 45.8648 42.5441 46.003C42.377 46.141 42.2083 46.277 42.038 46.411C41.8675 46.545 41.6954 46.6767 41.5218 46.8063C41.3482 46.9361 41.173 47.0637 40.9962 47.189C40.8193 47.3142 40.6409 47.4372 40.4611 47.5581C40.2812 47.679 40.0998 47.7977 39.9169 47.9142C39.734 48.0305 39.5498 48.1445 39.3643 48.2563C39.1786 48.3684 38.9914 48.478 38.8029 48.5852C38.6146 48.6923 38.4251 48.7971 38.2342 48.8996C38.0431 49.0021 37.8509 49.1021 37.6575 49.1997C37.4641 49.2975 37.2694 49.3929 37.0734 49.4858C36.8776 49.5787 36.6807 49.6692 36.4826 49.7572C36.2846 49.8452 36.0854 49.9307 35.8853 50.0138C35.6853 50.097 35.4842 50.1775 35.2819 50.2555C34.6601 50.4945 34.03 50.7094 33.3918 50.9001C32.7535 51.0908 32.1089 51.2571 31.458 51.3988C30.7911 51.5462 29.1456 51.7591 28.6486 52H23.275C22.7734 51.7286 20.376 51.383 19.6294 51.203C16.9988 50.5696 14.4584 49.4137 12.1737 47.9731C12.0123 47.871 11.852 47.7672 11.6928 47.6614C11.5336 47.5559 11.3757 47.4486 11.2189 47.3396C11.062 47.2304 10.9064 47.1195 10.7521 47.007C10.5977 46.8947 10.4446 46.7805 10.2927 46.6645C10.1408 46.5487 9.99024 46.4312 9.84096 46.3119C9.69167 46.1928 9.5437 46.072 9.39707 45.9494C9.25041 45.8271 9.10512 45.7032 8.96122 45.5776C8.81731 45.452 8.67479 45.3247 8.53366 45.1959C8.39253 45.0672 8.25284 44.937 8.11458 44.8051C7.97632 44.6732 7.83951 44.5399 7.70417 44.4052C7.56883 44.2703 7.43499 44.1339 7.30265 43.9962C7.1703 43.8585 7.03948 43.7192 6.9102 43.5784C6.7809 43.4379 6.65316 43.2959 6.52699 43.1523C6.40084 43.009 6.27626 42.8642 6.15326 42.7181C6.03028 42.5717 5.90891 42.4242 5.78915 42.2755C5.66939 42.1265 5.55129 41.9763 5.43485 41.8248C5.31838 41.6733 5.20359 41.5206 5.09048 41.3668C4.97739 41.2127 4.866 41.0575 4.75629 40.9011C4.64659 40.7447 4.53863 40.5871 4.4324 40.4283C4.32615 40.2696 4.22167 40.1097 4.11897 39.9486C4.01624 39.7873 3.91529 39.625 3.81611 39.4619C3.71695 39.2985 3.6196 39.134 3.52406 38.9685C3.42849 38.8032 3.33476 38.6368 3.24286 38.4691C3.15096 38.3018 3.06091 38.1333 2.97271 37.9639C2.88451 37.7941 2.79818 37.6236 2.71372 37.4523C2.62926 37.2809 2.54669 37.1086 2.46602 36.9354C2.38534 36.7622 2.30657 36.5882 2.22972 36.4133C2.15286 36.2382 2.07794 36.0624 2.00494 35.886C1.93194 35.7095 1.86089 35.5322 1.79179 35.354C1.72269 35.1757 1.65555 34.9968 1.59037 34.8172C1.5252 34.6376 1.462 34.4573 1.40078 34.2763C1.33957 34.0953 1.28034 33.9136 1.22311 33.7313C1.02921 33.0867 0.854791 32.4368 0.699867 31.7817C0.544942 31.1266 0.409787 30.4675 0.294402 29.8043C0.242372 29.5116 0.169291 28.435 0 28.2767V23.5829C0.150126 23.47 0.150068 23.0897 0.180867 22.9047C0.537168 20.7641 0.943297 18.8521 1.72734 16.8144C1.81045 16.5954 1.89649 16.3775 1.98547 16.1608C2.07445 15.944 2.16633 15.7285 2.26111 15.5143C2.35589 15.3 2.45354 15.0871 2.55405 14.8755C2.65457 14.6638 2.75791 14.4536 2.86409 14.2448C2.97027 14.0359 3.07924 13.8286 3.191 13.6227C3.30276 13.4168 3.41727 13.2124 3.53453 13.0096C3.65179 12.8068 3.77177 12.6056 3.89447 12.406C4.01714 12.2065 4.14249 12.0086 4.27051 11.8124C4.39852 11.6162 4.52915 11.4218 4.6624 11.2291C4.79564 11.0364 4.93145 10.8456 5.06983 10.6566C5.20823 10.4675 5.34914 10.2804 5.49256 10.0952C5.63599 9.91002 5.7819 9.72678 5.93026 9.54548C6.07862 9.36421 6.2294 9.18497 6.38259 9.00777C6.53578 8.83056 6.69133 8.65544 6.84924 8.48241C7.00714 8.30938 7.16734 8.13852 7.32985 7.96983C7.49235 7.80112 7.65709 7.63464 7.82407 7.47039C7.99107 7.30613 8.16025 7.14416 8.33159 6.98446C8.50293 6.82476 8.6764 6.6674 8.85199 6.5124C9.02758 6.35736 9.20524 6.20474 9.38496 6.05452C9.56465 5.90429 9.74634 5.75651 9.93003 5.61117C10.1137 5.46585 10.2993 5.32301 10.4868 5.18267C10.6743 5.04234 10.8637 4.90457 11.055 4.76936C11.2462 4.63415 11.4392 4.50153 11.634 4.3715C11.8288 4.2415 12.0254 4.11413 12.2236 3.9894C12.4219 3.86469 12.6217 3.74267 12.8232 3.62333C13.0248 3.504 13.2279 3.38741 13.4325 3.27356C13.6372 3.1597 13.8434 3.04863 14.051 2.94034C14.2587 2.83204 14.4677 2.72656 14.6782 2.62391C14.8887 2.52125 15.1006 2.42145 15.3138 2.3245C15.527 2.22755 15.7414 2.1335 15.9571 2.04233C16.1728 1.95117 16.3897 1.86293 16.6078 1.77761C16.8259 1.6923 17.0451 1.60994 17.2654 1.53053C17.7667 1.34835 18.2731 1.1819 18.7846 1.03118C19.2962 0.880462 19.812 0.74577 20.3319 0.627102C21.2262 0.431054 22.1984 0.374249 23.0404 0Z" fill="white"/>
<path d="M19.5111 11.9711C19.7236 11.8067 20.0083 11.7845 20.2679 11.7693C21.2812 11.7102 22.3075 11.7837 23.3218 11.7838L29.0101 11.7618C30.0823 11.7618 31.1571 11.7803 32.229 11.7667C33.3516 11.7525 34.4735 11.6715 35.5919 11.8155C37.3749 12.045 39.0737 13.0842 40.1715 14.5062C40.994 15.5714 41.4997 16.8853 41.7198 18.2064C41.8941 19.2521 41.7786 20.3096 41.7803 21.3649L41.7852 27.7916C41.7831 28.8099 41.7569 29.8316 41.7688 30.8494C41.7789 31.718 41.8678 32.5747 41.7572 33.4407C41.7208 33.7262 41.6515 34.007 41.6074 34.2913C41.5879 34.4176 41.5921 34.5471 41.5616 34.6718C41.339 35.5785 40.8893 36.5653 40.3332 37.3143C40.1789 37.5219 39.9917 37.7079 39.823 37.904C39.4978 38.2825 39.2011 38.6316 38.8014 38.938C38.2947 39.3267 37.2595 39.9174 36.6358 40.0498C34.8929 40.4203 33.245 40.3433 31.4787 40.344L26.371 40.3422L22.71 40.3177C21.6139 40.318 20.5463 40.3713 19.4529 40.2256C18.5173 40.1006 17.676 39.8341 16.8256 39.4258C16.6391 39.3362 16.4287 39.2486 16.263 39.124C15.8952 38.847 15.6265 38.4807 15.299 38.1638C15.0546 37.9274 14.7242 37.7342 14.5236 37.4596C14.3254 37.1886 14.4837 37.0538 14.1028 36.9176C13.9904 36.8017 13.9351 36.6105 13.8729 36.463C13.4268 35.4059 13.155 34.2299 13.0494 33.0882C12.9158 31.644 12.9772 30.1538 12.9778 28.7032C12.9784 27.5199 12.9249 26.3365 12.9412 25.1539C12.9453 24.8605 13.0612 23.9851 12.9139 23.7566C12.7885 23.8317 12.692 23.9162 12.6076 24.0361C12.3193 24.4449 9.96716 26.0962 9.47433 26.1888C9.37967 26.2065 9.2864 26.2097 9.20262 26.1623C8.88922 24.8548 8.20598 23.3189 7.49293 22.1775C7.83432 22.1624 8.17939 22.1194 8.51668 22.0656C9.01276 21.9865 12.4317 21.241 12.5975 21.0121C12.591 20.9555 12.5969 20.9355 12.5601 20.8885C12.1193 20.3265 8.35192 19.7615 7.42969 19.632C8.25659 18.7102 8.77534 16.8213 9.26008 15.6607C10.3169 16.2403 11.3313 16.9797 12.2277 17.7847C12.5791 18.1003 12.899 18.4476 13.2536 18.7607C13.4365 17.2175 13.9018 15.7903 14.8882 14.5675C16.0195 13.165 17.7086 12.163 19.5111 11.9711Z" fill="black"/>
<path d="M19.5155 11.9711C19.728 11.8067 20.0127 11.7845 20.2724 11.7693C21.2856 11.7102 22.312 11.7837 23.3262 11.7838L29.0146 11.7618C30.0868 11.7618 31.1615 11.7803 32.2334 11.7667C33.356 11.7525 34.4779 11.6715 35.5963 11.8155C37.3794 12.045 39.0781 13.0842 40.1759 14.5062C40.9984 15.5714 41.5041 16.8853 41.7242 18.2064C41.8985 19.2521 41.783 20.3096 41.7847 21.3649L41.7896 27.7916C41.7875 28.8099 41.7613 29.8316 41.7732 30.8494C41.7833 31.718 41.8722 32.5747 41.7617 33.4407C41.7253 33.7262 41.656 34.007 41.6119 34.2913C41.5923 34.4176 41.5965 34.5471 41.566 34.6718C41.3434 35.5785 40.8937 36.5653 40.3376 37.3143C40.1833 37.5219 39.9961 37.7079 39.8274 37.904C39.5023 38.2825 39.2055 38.6316 38.8058 38.938C38.2991 39.3267 37.2639 39.9174 36.6402 40.0498C34.8973 40.4203 33.2494 40.3433 31.4831 40.344L26.3755 40.3422L22.7144 40.3177C21.6183 40.318 20.5507 40.3713 19.4573 40.2256C18.5217 40.1006 17.6804 39.8341 16.83 39.4258C16.6435 39.3362 16.4331 39.2486 16.2674 39.124C15.8997 38.847 15.6309 38.4807 15.3034 38.1638C15.059 37.9274 14.7286 37.7342 14.528 37.4596C14.3298 37.1886 14.4881 37.0538 14.1072 36.9176C13.9948 36.8017 13.9395 36.6105 13.8773 36.463C13.4312 35.4059 13.1594 34.2299 13.0538 33.0882C12.9202 31.644 12.9816 30.1538 12.9822 28.7032C12.9828 27.5199 12.9293 26.3365 12.9456 25.1539C12.9497 24.8605 13.0656 23.9851 12.9183 23.7566C12.7929 23.8317 12.6964 23.9162 12.612 24.0361C12.3237 24.4449 9.97157 26.0962 9.47875 26.1888C9.38408 26.2065 9.29081 26.2097 9.20703 26.1623C9.31524 26.0789 9.46608 26.0228 9.58706 25.954C9.89354 25.7827 10.1921 25.5986 10.4828 25.4016C11.5139 24.6904 12.4018 23.8748 13.3051 23.0117C13.2335 23.521 13.2627 24.0583 13.263 24.5718L13.2646 27.0713L13.2568 30.88C13.255 31.6974 13.2304 32.5232 13.2844 33.3391C13.4098 35.2336 14.2139 37.052 15.6577 38.3084C16.5437 39.0798 17.6184 39.6919 18.7676 39.9581C20.2646 40.3047 21.8663 40.2151 23.3935 40.2112L28.0012 40.2042H32.007C32.8219 40.2056 33.6511 40.2379 34.4638 40.1801C36.5485 40.0323 38.4076 39.2318 39.7906 37.6333C39.8415 37.5735 39.8914 37.513 39.9404 37.4516C39.9894 37.3902 40.0375 37.3281 40.0846 37.2653C40.1315 37.2022 40.1775 37.1386 40.2225 37.0744C40.2675 37.01 40.3114 36.9449 40.3541 36.879C40.397 36.8132 40.4389 36.7468 40.4797 36.6798C40.5205 36.6126 40.5602 36.5447 40.5987 36.4763C40.6372 36.4079 40.6747 36.339 40.711 36.2694C40.7474 36.1998 40.7828 36.1297 40.8171 36.0589C40.8512 35.9882 40.8842 35.917 40.9161 35.8453C40.9479 35.7734 40.9785 35.7012 41.0082 35.6286C41.0378 35.5558 41.0661 35.4825 41.0932 35.4087C41.1205 35.3351 41.1465 35.2611 41.1713 35.1867C41.1962 35.1122 41.2199 35.0373 41.2423 34.9619C41.2647 34.8867 41.2859 34.8111 41.306 34.7352C41.3261 34.6592 41.345 34.583 41.3627 34.5064C41.3802 34.4299 41.3965 34.3531 41.4117 34.276C41.6017 33.301 41.5174 32.2931 41.5111 31.3068L41.5023 27.4639L41.5079 21.8676C41.5121 20.7265 41.5639 19.5735 41.4803 18.4346C41.3459 16.6064 40.4073 14.8688 39.0235 13.6782C38.9649 13.6273 38.9055 13.5773 38.845 13.5282C38.7848 13.4791 38.7238 13.431 38.662 13.3839C38.6004 13.3368 38.5379 13.2907 38.4744 13.2456C38.4112 13.2005 38.3473 13.1564 38.2826 13.1133C38.218 13.0703 38.1527 13.0282 38.0866 12.9872C38.0206 12.9462 37.954 12.9063 37.8868 12.8675C37.8196 12.8286 37.7517 12.7909 37.6831 12.7542C37.6145 12.7175 37.5455 12.6819 37.476 12.6474C37.4064 12.6129 37.3363 12.5796 37.2656 12.5473C37.1949 12.5151 37.1238 12.484 37.0521 12.454C36.9803 12.424 36.9081 12.3952 36.8355 12.3676C36.763 12.3399 36.6899 12.3134 36.6164 12.288C36.5432 12.2627 36.4694 12.2386 36.3953 12.2156C36.3211 12.1926 36.2464 12.1708 36.1713 12.1503C36.0964 12.1297 36.0213 12.1103 35.9459 12.0921C35.8703 12.0739 35.7945 12.0569 35.7184 12.0411C34.6068 11.8172 33.4567 11.8907 32.3307 11.8977L28.5256 11.9075L23.5104 11.8976C22.1787 11.8934 20.8444 11.8695 19.5155 11.9711Z" fill="#FDBC00"/>
<path d="M19.9275 17.0671C20.8982 17.0092 21.8769 17.0506 22.8489 17.052L27.8403 17.0513L32.3751 17.053C33.2013 17.0523 34.0422 17.0085 34.8661 17.0649C35.3339 17.0969 35.7913 17.1722 36.2375 17.3191C36.2748 17.3315 36.312 17.3444 36.3491 17.3578C36.3862 17.3711 36.4232 17.3849 36.4601 17.3992C36.4967 17.4134 36.5333 17.4281 36.57 17.4433C36.6064 17.4585 36.6425 17.4741 36.6785 17.4901C36.7144 17.5062 36.7502 17.5226 36.7859 17.5396C36.8216 17.5565 36.8569 17.5738 36.8919 17.5916C36.9272 17.6094 36.9622 17.6276 36.9969 17.6463C37.0317 17.6649 37.0662 17.684 37.1005 17.7035C37.1348 17.723 37.1689 17.7429 37.2027 17.7632C37.2365 17.7835 37.27 17.8043 37.3031 17.8254C37.3365 17.8466 37.3695 17.8681 37.4022 17.8901C37.4351 17.912 37.4676 17.9344 37.4998 17.9572C37.532 17.9799 37.5639 18.003 37.5954 18.0266C37.6271 18.0501 37.6585 18.074 37.6895 18.0984C37.7205 18.1227 37.7513 18.1473 37.7819 18.1724C37.8122 18.1974 37.8423 18.2229 37.8722 18.2487C37.9021 18.2744 37.9316 18.3006 37.9607 18.3271C37.9899 18.3536 38.0188 18.3805 38.0475 18.4077C38.076 18.435 38.1041 18.4625 38.1319 18.4904C38.1599 18.5184 38.1874 18.5466 38.2145 18.5752C38.2418 18.6038 38.2686 18.6327 38.295 18.662C38.3213 18.6912 38.3474 18.7208 38.3733 18.7507C38.399 18.7806 38.4243 18.8108 38.4493 18.8412C38.4743 18.8718 38.4989 18.9026 38.5231 18.9337C38.5474 18.9648 38.5713 18.9962 38.5949 19.0279C38.6182 19.0596 38.6413 19.0916 38.6642 19.1238C38.6868 19.1561 38.7091 19.1886 38.731 19.2214C38.7529 19.2542 38.7744 19.2873 38.7954 19.3207C38.8164 19.354 38.8371 19.3876 38.8573 19.4214C38.8776 19.4552 38.8975 19.4893 38.9168 19.5236C38.9364 19.558 38.9555 19.5926 38.9739 19.6273C38.9926 19.6621 39.0107 19.6972 39.0285 19.7324C39.0789 19.8343 39.1252 19.938 39.1674 20.0436C39.2096 20.1492 39.2476 20.2563 39.2812 20.365C39.315 20.4736 39.3443 20.5834 39.369 20.6944C39.394 20.8053 39.4144 20.9171 39.4302 21.0298C39.5587 21.9524 39.4726 22.9031 39.474 23.832C39.4754 24.7567 39.5471 25.6845 39.4649 26.6076C39.4577 26.6975 39.4476 26.7872 39.4348 26.8764C39.4217 26.9657 39.4059 27.0545 39.3872 27.1428C39.3685 27.2311 39.3471 27.3187 39.3228 27.4055C39.2983 27.4924 39.2711 27.5784 39.2413 27.6635C39.2289 27.6999 39.2161 27.7361 39.2028 27.7721C39.1897 27.8082 39.1761 27.8441 39.1618 27.8798C39.1478 27.9155 39.1332 27.951 39.1181 27.9864C39.1031 28.0218 39.0877 28.0569 39.0719 28.0919C39.056 28.1269 39.0398 28.1616 39.0232 28.1962C39.0064 28.2308 38.9893 28.2651 38.9718 28.2993C38.9541 28.3334 38.9361 28.3674 38.9179 28.4011C38.8995 28.4348 38.8806 28.4683 38.8612 28.5015C38.8421 28.5347 38.8225 28.5677 38.8024 28.6005C38.7823 28.6333 38.7619 28.6658 38.7412 28.698C38.7202 28.7303 38.6989 28.7622 38.6775 28.794C38.6558 28.8257 38.6337 28.8572 38.6113 28.8883C38.5889 28.9195 38.5662 28.9504 38.5431 28.981C38.5197 29.0117 38.4962 29.042 38.4724 29.072C38.4484 29.102 38.4241 29.1318 38.3996 29.1612C38.3749 29.1907 38.3498 29.2198 38.3243 29.2486C38.2991 29.2775 38.2735 29.306 38.2474 29.3341C38.2212 29.3623 38.1947 29.3902 38.1679 29.4177C38.1413 29.4453 38.1143 29.4725 38.0867 29.4993C38.0594 29.5262 38.0317 29.5527 38.0034 29.5789C37.9754 29.6051 37.9471 29.6309 37.9184 29.6564C37.8897 29.6819 37.8606 29.707 37.8312 29.7318C37.8018 29.7565 37.7722 29.7809 37.7424 29.8049C37.7123 29.829 37.682 29.8526 37.6517 29.8759C37.6211 29.8992 37.5903 29.9221 37.5593 29.9446C37.5281 29.9672 37.4967 29.9893 37.4652 30.0111C37.4334 30.0328 37.4015 30.0541 37.3693 30.0751C37.3371 30.0961 37.3047 30.1166 37.272 30.1368C37.2393 30.1569 37.2064 30.1767 37.1733 30.196C37.1402 30.2154 37.1068 30.2343 37.0732 30.2529C37.0396 30.2714 37.0058 30.2895 36.9717 30.3072C36.9377 30.3249 36.9034 30.3421 36.8688 30.359C35.372 31.0763 33.7966 30.8419 32.2934 30.3029C31.2734 29.9081 30.468 29.2493 29.6267 28.5724C28.2896 27.4965 26.8857 27.328 25.4675 28.3746C24.8762 28.811 24.3629 29.3366 23.7418 29.7368C23.6851 29.7737 23.628 29.8097 23.5702 29.8448C23.5125 29.8799 23.4543 29.9142 23.3955 29.9476C23.3368 29.981 23.2776 30.0135 23.2179 30.0452C23.1582 30.0768 23.098 30.1075 23.0374 30.1374C22.9767 30.1672 22.9157 30.1961 22.8542 30.2241C22.7927 30.2521 22.7308 30.2792 22.6685 30.3054C22.6062 30.3315 22.5435 30.3568 22.4805 30.3811C22.4174 30.4054 22.354 30.4287 22.2903 30.4511C22.2266 30.4735 22.1625 30.495 22.0981 30.5155C22.0337 30.536 21.9691 30.5555 21.9041 30.5741C21.8391 30.5926 21.7739 30.6102 21.7084 30.6268C21.6429 30.6434 21.5772 30.6591 21.5112 30.6737C21.4453 30.6884 21.3791 30.702 21.3127 30.7147C21.2464 30.7274 21.1798 30.7391 21.1131 30.7498C21.0464 30.7605 20.9796 30.7702 20.9126 30.7789C20.8456 30.7876 20.7785 30.7953 20.7112 30.802C19.3467 30.9478 18.0281 30.6394 16.9468 29.7622C15.9325 28.9394 15.3926 27.7981 15.2638 26.5122C15.1826 25.701 15.2275 24.8762 15.225 24.062C15.2194 22.2275 15.0579 20.3399 16.3068 18.8252C17.2362 17.698 18.5135 17.2022 19.9275 17.0671Z" fill="#FDBC00"/>
<path d="M27.2509 17.1379C28.0398 17.1974 28.8456 17.1744 29.6371 17.179L32.7829 17.2041C33.7477 17.2023 34.7411 17.1167 35.6916 17.3252C36.276 17.4534 36.8164 17.741 37.3448 18.0103C37.6059 18.4831 38.1099 18.7656 38.4511 19.1771C38.9099 19.7301 39.1258 20.5246 39.2326 21.2266C39.2865 21.5825 39.2557 21.9627 39.2616 22.3227C39.2847 23.2618 39.2875 24.201 39.27 25.1403C39.2641 25.6192 39.305 26.1177 39.262 26.5937C39.1913 27.382 38.5197 28.9932 37.8915 29.5097C37.7358 29.638 37.5608 29.7204 37.3956 29.8332C37.2217 29.9522 37.0677 30.1146 36.8808 30.2118C36.0941 30.6212 35.0288 30.71 34.156 30.6246C33.0325 30.5148 31.5255 29.9996 30.6642 29.2532C30.5366 29.1426 30.4475 28.9846 30.3396 28.8551C30.1309 28.6047 29.8462 28.5464 29.5797 28.3862C29.3911 28.2727 29.2392 28.0855 29.0658 27.9489C28.6259 27.6027 27.9569 27.5329 27.417 27.4794C27.1072 27.4891 26.7671 27.5664 26.4681 27.6464C25.186 27.9895 24.808 28.7361 23.8435 29.4713C23.1273 30.0173 22.148 30.4361 21.2613 30.5932C20.7959 30.6756 20.3407 30.6382 19.8731 30.6147C19.5706 30.5995 19.2593 30.6218 18.959 30.584C18.3279 30.5045 17.5992 30.0602 17.1296 29.6469C16.7957 29.3531 16.5399 28.9327 16.176 28.6838L16.1408 28.6601C16.025 28.103 15.6498 27.6559 15.5611 27.0918C15.4159 26.1683 15.5259 25.1972 15.5168 24.2656C15.5082 23.3901 15.392 21.9997 15.5088 21.1818C15.5863 20.6391 15.789 19.9164 16.1197 19.4697C16.8284 18.5122 17.9135 17.6892 19.0896 17.4082C19.2435 17.3714 19.3962 17.4267 19.5472 17.3959C19.786 17.3471 20.0036 17.2157 20.2506 17.1966C20.9615 17.1414 21.6816 17.2035 22.3936 17.206C23.2792 17.2092 24.1649 17.1685 25.0504 17.1833C25.7815 17.1955 26.5251 17.2424 27.2509 17.1379Z" fill="white"/>
<path d="M22.5831 21.9963C23.0251 21.9577 23.4597 22.0171 23.8478 22.2418C23.8757 22.2582 23.9031 22.2753 23.9302 22.2931C23.9573 22.3108 23.9839 22.3292 24.0101 22.3482C24.0362 22.3673 24.0619 22.3869 24.0872 22.4072C24.1124 22.4275 24.1371 22.4484 24.1613 22.4699C24.1855 22.4914 24.2092 22.5134 24.2324 22.536C24.2555 22.5587 24.2781 22.5819 24.3001 22.6056C24.3221 22.6293 24.3435 22.6536 24.3644 22.6784C24.3852 22.7031 24.4055 22.7284 24.4251 22.7541C24.4447 22.7799 24.4637 22.8061 24.482 22.8328C24.5004 22.8594 24.5181 22.8865 24.5351 22.9141C24.5522 22.9416 24.5685 22.9695 24.5842 22.9978C24.5999 23.0262 24.6148 23.0549 24.6291 23.0839C24.6434 23.113 24.657 23.1424 24.6699 23.1721C24.6827 23.2018 24.6949 23.2318 24.7063 23.2621C24.7177 23.2924 24.7284 23.323 24.7383 23.3538C24.7482 23.3846 24.7574 23.4156 24.7658 23.4469C24.7738 23.4783 24.7811 23.5098 24.7876 23.5416C24.794 23.5733 24.7997 23.6052 24.8046 23.6373C24.8095 23.6693 24.8136 23.7014 24.8169 23.7336C24.8203 23.7658 24.8228 23.7981 24.8245 23.8305C24.8263 23.8628 24.8272 23.8952 24.8273 23.9276C24.8274 23.96 24.8268 23.9924 24.8253 24.0247C24.8238 24.0571 24.8216 24.0894 24.8185 24.1216C24.8155 24.1539 24.8116 24.1861 24.807 24.2181C24.8023 24.2502 24.7969 24.2821 24.7907 24.3139C24.7845 24.3457 24.7775 24.3773 24.7697 24.4087C24.7619 24.4402 24.7534 24.4715 24.7441 24.5025C24.7348 24.5335 24.7247 24.5643 24.7139 24.5948C24.7031 24.6253 24.6915 24.6556 24.6791 24.6856C24.6668 24.7155 24.6538 24.7451 24.64 24.7745C24.6262 24.8038 24.6117 24.8327 24.5965 24.8613C24.5813 24.8899 24.5654 24.9181 24.5488 24.9459C24.2243 25.492 23.755 25.7575 23.1551 25.9128C22.7234 25.9239 22.3463 25.8924 21.9582 25.6865C21.9293 25.6711 21.9008 25.655 21.8726 25.6382C21.8445 25.6213 21.8168 25.6038 21.7896 25.5855C21.7624 25.5673 21.7356 25.5484 21.7093 25.5288C21.683 25.5093 21.6572 25.4891 21.6319 25.4682C21.6066 25.4473 21.5819 25.4259 21.5577 25.4038C21.5335 25.3817 21.5098 25.359 21.4868 25.3357C21.4637 25.3125 21.4412 25.2886 21.4193 25.2642C21.3974 25.2398 21.3761 25.2149 21.3555 25.1895C21.3348 25.164 21.3148 25.1381 21.2955 25.1116C21.2761 25.0851 21.2574 25.0582 21.2394 25.0308C21.2214 25.0034 21.2041 24.9756 21.1875 24.9473C21.1708 24.9191 21.1549 24.8904 21.1397 24.8614C21.1246 24.8323 21.1101 24.8029 21.0964 24.7732C21.0827 24.7434 21.0697 24.7133 21.0575 24.6829C21.0452 24.6524 21.0338 24.6217 21.0231 24.5907C21.0124 24.5597 21.0025 24.5285 20.9934 24.497C20.8442 23.9934 20.8945 23.4577 21.1535 22.9988C21.4712 22.4358 21.9784 22.1629 22.5831 21.9963Z" fill="black"/>
<path d="M31.6309 22.0003C32.0583 21.9433 32.5375 22.0522 32.9059 22.2726C32.9333 22.2891 32.9602 22.3063 32.9867 22.3241C33.0132 22.3419 33.0392 22.3604 33.0648 22.3795C33.0903 22.3987 33.1154 22.4184 33.14 22.4388C33.1646 22.4592 33.1886 22.4802 33.2121 22.5018C33.2357 22.5234 33.2587 22.5456 33.2811 22.5683C33.3035 22.5911 33.3253 22.6144 33.3466 22.6382C33.3678 22.6621 33.3885 22.6864 33.4085 22.7113C33.4285 22.7362 33.4479 22.7616 33.4667 22.7874C33.4854 22.8132 33.5035 22.8396 33.521 22.8663C33.5384 22.8931 33.5552 22.9203 33.5713 22.9478C33.5874 22.9754 33.6027 23.0034 33.6174 23.0318C33.6321 23.0602 33.6461 23.0889 33.6593 23.118C33.6726 23.147 33.6851 23.1764 33.6968 23.2061C33.7086 23.2358 33.7197 23.2658 33.7299 23.296C33.7402 23.3263 33.7497 23.3568 33.7585 23.3875C33.7672 23.4182 33.7752 23.4491 33.7824 23.4802C33.79 23.5122 33.7968 23.5443 33.8029 23.5766C33.8089 23.6089 33.8141 23.6414 33.8186 23.6739C33.823 23.7065 33.8266 23.7391 33.8294 23.7719C33.8322 23.8046 33.8342 23.8374 33.8354 23.8702C33.8366 23.9031 33.837 23.9359 33.8366 23.9688C33.8361 24.0016 33.8349 24.0345 33.8328 24.0673C33.8308 24.1001 33.8279 24.1328 33.8242 24.1654C33.8205 24.1981 33.8161 24.2306 33.8108 24.263C33.8055 24.2955 33.7994 24.3278 33.7925 24.3599C33.7856 24.392 33.778 24.424 33.7695 24.4557C33.761 24.4875 33.7518 24.519 33.7417 24.5503C33.7317 24.5816 33.7209 24.6126 33.7094 24.6434C33.6978 24.6741 33.6855 24.7046 33.6725 24.7347C33.6594 24.7649 33.6456 24.7947 33.631 24.8241C33.6165 24.8536 33.6012 24.8827 33.5852 24.9114C33.5693 24.9401 33.5526 24.9684 33.5352 24.9963C33.2069 25.5235 32.715 25.7652 32.1292 25.906C31.6924 25.9439 31.2541 25.8659 30.8758 25.6384C30.416 25.3619 30.0938 24.8918 29.9726 24.3715C29.9653 24.3402 29.9588 24.3087 29.953 24.2772C29.9473 24.2456 29.9423 24.2138 29.9382 24.182C29.934 24.1501 29.9306 24.1182 29.9281 24.0862C29.9255 24.0541 29.9237 24.0221 29.9228 23.99C29.9218 23.9579 29.9216 23.9258 29.9222 23.8937C29.9229 23.8616 29.9243 23.8295 29.9265 23.7974C29.9288 23.7654 29.9318 23.7334 29.9356 23.7015C29.9395 23.6696 29.9441 23.6379 29.9495 23.6062C29.9549 23.5745 29.9611 23.543 29.9681 23.5117C29.9751 23.4803 29.9828 23.4492 29.9914 23.4182C29.9999 23.3873 30.0092 23.3565 30.0193 23.326C30.0294 23.2955 30.0402 23.2653 30.0518 23.2353C30.0633 23.2054 30.0757 23.1757 30.0887 23.1464C30.1018 23.1171 30.1155 23.0881 30.1301 23.0594C30.1446 23.0307 30.1598 23.0025 30.1757 22.9746C30.1916 22.9467 30.2082 22.9192 30.2255 22.8921C30.5575 22.3662 31.0406 22.1304 31.6309 22.0003Z" fill="black"/>
<path d="M20.5084 19.7508C21.2034 19.7261 21.8635 19.8722 22.5511 19.934C23.2496 19.9968 23.952 19.997 24.6463 20.1073C24.9653 20.158 25.4131 20.2346 25.607 20.5252C25.6955 20.6577 25.7047 20.8172 25.6658 20.9686C25.6051 21.2046 25.454 21.3453 25.2498 21.4587C24.4447 21.5547 23.6131 21.3749 22.814 21.2867C22.2024 21.2192 21.5846 21.1897 20.9767 21.0922C20.6948 21.0469 20.3203 20.9893 20.1488 20.7318C20.0647 20.6055 20.0515 20.4524 20.08 20.3063C20.1352 20.0233 20.2852 19.9043 20.5084 19.7508Z" fill="black"/>
<path d="M33.6609 19.7716C33.8967 19.7364 34.191 19.715 34.3994 19.8503C34.5675 19.9595 34.638 20.1894 34.6708 20.3781C34.6939 20.5111 34.6654 20.6413 34.5807 20.7479C34.4436 20.9203 34.2027 21.0094 33.9959 21.0626C33.4941 21.1915 32.9551 21.1903 32.4405 21.2367L30.1374 21.4591C29.9009 21.4769 29.555 21.5379 29.3476 21.3925C29.2061 21.2934 29.1241 21.0786 29.1012 20.9138C29.0771 20.7413 29.1099 20.5573 29.2264 20.4225C29.3504 20.2788 29.5495 20.2178 29.7283 20.175C30.3365 20.0297 30.989 20.0239 31.6113 19.9746C32.2953 19.9155 32.9785 19.8478 33.6609 19.7716Z" fill="black"/>
</svg>
