<svg width="154" height="56" viewBox="0 0 154 56" fill="none" xmlns="http://www.w3.org/2000/svg">
<g clip-path="url(#clip0_8185_8242)">
<path d="M85.206 12.9148C85.8402 12.858 86.4948 12.9526 87.0415 13.2968C87.6494 13.6795 87.9592 14.2613 88.11 14.9514C88.3961 16.2585 88.2754 18.2529 88.2732 19.6383L88.2657 26.5094L88.2698 35.3799V38.2686C88.2698 38.8973 88.2867 39.5361 88.2461 40.164C88.2033 40.8303 88.1175 41.6946 87.7502 42.2633C87.3896 42.8222 86.7862 43.1646 86.1467 43.2977C85.477 43.4372 84.7965 43.3377 84.2232 42.953C83.5599 42.5084 83.1174 41.7512 83.0317 40.957C82.9979 40.6425 83.0287 40.311 82.9663 40.0022L82.9103 39.983C82.1812 40.7059 81.4725 41.4178 80.5972 41.9665C78.6162 43.208 76.2352 43.6944 73.9455 43.1552C73.8783 43.1396 73.8113 43.1231 73.7443 43.1058C73.6774 43.0887 73.6107 43.0707 73.5443 43.0518C73.4779 43.0327 73.4117 43.013 73.3458 42.9926C73.2799 42.972 73.2142 42.9506 73.1488 42.9285C73.0834 42.9061 73.0182 42.8831 72.9533 42.8595C72.8884 42.8356 72.8238 42.811 72.7596 42.7856C72.6955 42.7602 72.6316 42.7339 72.5679 42.7068C72.5042 42.6799 72.4411 42.6521 72.3784 42.6234C72.3155 42.595 72.253 42.5657 72.1908 42.5356C72.1284 42.5054 72.0665 42.4745 72.0051 42.4428C71.9436 42.4111 71.8827 42.3787 71.8223 42.3455C71.7617 42.3123 71.7014 42.2785 71.6415 42.2441C71.5818 42.2094 71.5226 42.1739 71.4637 42.1377C71.4047 42.1015 71.3462 42.0647 71.2881 42.0272C71.2302 41.9895 71.1726 41.9512 71.1155 41.9122C71.0586 41.8733 71.0021 41.8335 70.9459 41.7931C70.8898 41.7526 70.8343 41.7115 70.7794 41.6697C70.7242 41.6278 70.6697 41.5853 70.6158 41.5423C70.5617 41.499 70.5082 41.4552 70.4553 41.4107C70.4024 41.3662 70.35 41.321 70.2981 41.2753C70.2465 41.2295 70.1954 41.1832 70.1447 41.1361C70.0941 41.0889 70.044 41.0411 69.9943 40.9928C69.945 40.9446 69.8961 40.8957 69.8477 40.8461C69.7996 40.7966 69.752 40.7465 69.7048 40.6957C69.6577 40.6451 69.6113 40.5939 69.5657 40.5418C69.5199 40.49 69.4747 40.4376 69.4304 40.3846C69.3858 40.3318 69.3419 40.2783 69.2988 40.2243C69.2557 40.1702 69.2132 40.1156 69.1713 40.0603C69.1295 40.0052 69.0884 39.9496 69.048 39.8936C69.0076 39.8373 68.9679 39.7806 68.9288 39.7235C68.8897 39.6664 68.8514 39.6089 68.8138 39.5508C68.7762 39.4927 68.7393 39.4341 68.7032 39.3751C68.2885 38.7031 67.8983 37.9549 67.6253 37.2126C67.4166 36.6456 67.2802 36.0479 67.1527 35.4585C67.0012 34.758 66.8572 34.0232 66.7944 33.3083C66.6305 31.4474 66.8365 29.4262 67.3527 27.6358C67.4817 27.1882 67.6227 26.7466 67.8156 26.322C67.9306 26.0677 68.4209 25.199 68.4592 25.0067C68.4622 24.9911 68.4645 24.9754 68.4671 24.9597C68.5329 24.983 68.5976 25.0089 68.6566 25.0466C69.2789 25.4447 69.9973 26.1049 70.5944 26.5835C71.3099 27.1566 72.0705 27.6948 72.7611 28.2959C72.8284 28.3545 72.8897 28.3978 72.9093 28.4906C72.93 28.6082 72.88 28.725 72.8491 28.8382C72.6664 29.508 72.5036 30.1555 72.4077 30.8449C72.3088 31.5561 72.2942 32.3072 72.3634 33.0219C72.4028 33.4334 72.4724 33.8458 72.5374 34.2541C72.5562 34.3725 72.6077 34.5197 72.6066 34.6368C72.6059 34.6894 72.5848 34.7413 72.5611 34.7871C72.7472 35.08 72.8288 35.4456 72.9488 35.7701C73.2022 36.455 73.6887 37.1772 74.2057 37.6863C74.2337 37.7138 74.2622 37.7409 74.291 37.7678C74.3198 37.7947 74.349 37.8213 74.3786 37.8474C74.4079 37.8736 74.4378 37.8992 74.4681 37.9243C74.4982 37.9497 74.5285 37.9747 74.5591 37.9994C74.5899 38.024 74.621 38.0483 74.6523 38.0722C74.6836 38.096 74.7152 38.1194 74.7471 38.1423C74.7791 38.1654 74.8113 38.1881 74.8437 38.2102C74.8763 38.2326 74.9091 38.2544 74.9422 38.2758C74.975 38.2972 75.0082 38.3182 75.0418 38.3388C75.0754 38.3594 75.1092 38.3796 75.1433 38.3995C75.1772 38.4191 75.2114 38.4383 75.246 38.4572C75.2806 38.476 75.3153 38.4945 75.3501 38.5126C75.3852 38.5307 75.4204 38.5483 75.4558 38.5654C75.4914 38.5825 75.527 38.5992 75.5625 38.6156C75.5984 38.6319 75.6345 38.6478 75.6708 38.6631C75.7069 38.6784 75.7433 38.6933 75.7799 38.7076C75.8165 38.7222 75.8533 38.7362 75.8904 38.7498C75.9272 38.7634 75.9643 38.7765 76.0017 38.789C76.0388 38.8016 76.0761 38.8137 76.1137 38.8252C76.1513 38.8371 76.1891 38.8482 76.2269 38.8588C76.2647 38.8696 76.3027 38.8799 76.3408 38.8897C76.3789 38.8995 76.4171 38.9088 76.4555 38.9176C76.4938 38.9264 76.5322 38.9349 76.5705 38.9429C76.6091 38.9507 76.6479 38.9581 76.6867 38.9652C76.7253 38.9719 76.764 38.9783 76.8029 38.9844C76.8417 38.9902 76.8807 38.9956 76.9198 39.0006C76.9587 39.0056 76.9976 39.0101 77.0368 39.0142C77.0761 39.0182 77.1153 39.0217 77.1544 39.0247C77.1935 39.0277 77.2328 39.0303 77.2721 39.0323C77.3115 39.0343 77.3508 39.0359 77.3902 39.0372C77.4293 39.0382 77.4685 39.0387 77.5079 39.0387C77.5472 39.0389 77.5866 39.0386 77.6259 39.0376C78.9279 39.0149 80.0784 38.4843 80.971 37.5429C81.2477 37.2512 82.0241 36.2821 82.0154 35.8891C82.1433 35.9346 82.2594 35.9876 82.3722 36.0644C82.94 36.4514 83.4588 36.936 83.9901 37.3739L86.9787 39.8359C87.2471 40.0561 87.5419 40.2383 87.8081 40.4566C87.804 40.414 87.8006 40.3736 87.7818 40.3344C87.7404 40.2473 83.299 35.927 82.893 35.5629C82.7249 35.412 82.5689 35.2661 82.3534 35.1874C82.6268 34.7441 82.6832 31.8262 82.638 31.1908C82.5132 29.4263 81.853 27.5415 80.4845 26.3618C80.4371 26.3213 80.3888 26.2818 80.3397 26.2433C80.2908 26.2047 80.2411 26.1672 80.1904 26.1306C80.1401 26.0941 80.0888 26.0586 80.0367 26.0241C79.9848 25.9896 79.9323 25.9561 79.8791 25.9237C79.8257 25.8913 79.7719 25.86 79.7175 25.8297C79.6631 25.7995 79.6081 25.7703 79.5524 25.7422C79.4968 25.7142 79.4405 25.6873 79.3836 25.6615C79.3269 25.6357 79.2698 25.611 79.2122 25.5875C79.1545 25.564 79.0963 25.5416 79.0377 25.5204C78.979 25.4992 78.9201 25.4792 78.861 25.4603C78.8016 25.4415 78.7418 25.4238 78.6816 25.4074C78.6215 25.3909 78.5611 25.3757 78.5004 25.3616C78.4398 25.3476 78.3789 25.3348 78.3177 25.3231C78.2565 25.3115 78.1951 25.3011 78.1335 25.292C78.0718 25.2828 78.01 25.2749 77.9481 25.2682C77.8862 25.2615 77.8242 25.256 77.762 25.2518C77.6999 25.2476 77.6377 25.2447 77.5755 25.2429C77.5134 25.2412 77.4511 25.2407 77.3887 25.2415C77.3265 25.2422 77.2643 25.2442 77.2022 25.2475C77.1398 25.2507 77.0776 25.2552 77.0157 25.2609C76.9538 25.2666 76.8919 25.2736 76.83 25.2818C76.7683 25.29 76.7068 25.2994 76.6454 25.31C76.584 25.3207 76.5228 25.3326 76.4619 25.3456C76.401 25.3587 76.3404 25.3731 76.2803 25.3886C76.2199 25.4041 76.1599 25.4208 76.1002 25.4387C76.0405 25.4566 75.9813 25.4757 75.9224 25.496C75.8635 25.5163 75.8049 25.5377 75.7468 25.5603C75.6889 25.583 75.6313 25.6067 75.5742 25.6316C75.5171 25.6566 75.4604 25.6826 75.4043 25.7098C75.3484 25.737 75.2928 25.7652 75.2377 25.7946C75.1828 25.824 75.1285 25.8545 75.0749 25.8861C75.021 25.9176 74.9679 25.9502 74.9155 25.9839C74.726 26.1043 73.9718 26.7866 73.8684 26.794C73.4511 26.4983 70.2895 23.4295 70.221 23.1821C70.2038 23.1207 70.2165 23.0729 70.2492 23.0191C70.5906 22.4554 72.7032 21.609 73.3845 21.4237C75.9712 20.72 78.8358 21.0579 81.0608 22.5956C81.4015 22.8311 81.7188 23.0782 82.0297 23.3524C82.3068 23.5966 82.5922 23.9039 82.9129 24.0877C82.999 24.0457 82.9719 23.5697 82.9712 23.4636C82.9657 21.8489 82.97 20.2344 82.9843 18.6198C82.987 17.6025 82.9249 16.5313 83.0524 15.5234C83.1148 15.0309 83.2321 14.4792 83.4949 14.0547C83.8953 13.4088 84.4864 13.0906 85.206 12.9148Z" fill="black"/>
<path d="M114.05 21.0612C114.821 21.0193 115.514 21.1193 116.064 21.7135C116.838 22.5489 118.027 26.446 118.458 27.7047C118.698 28.4086 118.977 29.0994 119.232 29.7982C119.558 30.6895 119.862 31.5906 120.179 32.4856C120.602 33.6852 120.974 34.9255 121.448 36.1043C121.506 36.2494 121.597 36.5117 121.736 36.5919C122.076 36.1947 122.788 33.8772 123.014 33.2209C123.755 31.0706 124.576 28.9529 125.356 26.8173C125.815 25.5632 126.194 24.2515 126.743 23.0353C126.974 22.524 127.246 21.9052 127.68 21.5376C128.167 21.1254 128.826 20.9953 129.448 21.0546C130.118 21.1184 130.774 21.4131 131.201 21.9463C131.612 22.4598 131.794 23.1473 131.719 23.7986C131.686 24.0933 131.611 24.3882 131.52 24.6699C131.372 25.1244 130.158 28.298 129.953 28.459C129.946 28.8535 125.554 39.614 125.077 40.702C124.925 41.0496 124.758 41.3909 124.557 41.7126C124.067 42.4947 123.426 43.0868 122.508 43.2915C121.655 43.4816 120.696 43.3835 119.954 42.9016C119.509 42.6124 119.027 42.1251 118.768 41.6598C118.116 40.4878 117.625 39.0502 117.122 37.7979L114.556 31.4017L112.882 27.2655C112.475 26.2729 111.98 25.2695 111.763 24.213C111.624 23.5358 111.642 22.8229 112.038 22.2328C112.502 21.5405 113.264 21.2195 114.05 21.0612Z" fill="black"/>
<path d="M95.0439 12.9157C95.806 12.8426 96.6061 12.9708 97.243 13.4212C97.8995 13.8854 98.1833 14.6355 98.3145 15.4036C98.4021 15.9182 98.392 16.4725 98.4018 16.9943C98.4161 17.8274 98.4222 18.6605 98.4202 19.4937L98.4142 25.7362L98.4228 34.8728C98.4251 36.6978 98.5014 38.6927 98.3379 40.4998C98.2807 41.1314 98.1578 41.7816 97.7777 42.3027C97.3633 42.8706 96.72 43.2164 96.0327 43.3179C95.4658 43.4763 94.777 43.3126 94.2724 43.0366C94.2336 43.0157 94.1952 42.9938 94.1574 42.9709C94.1193 42.9481 94.0819 42.9243 94.0453 42.8997C94.0087 42.875 93.9728 42.8495 93.9374 42.8231C93.9018 42.7967 93.867 42.7693 93.8329 42.7409C93.7991 42.7127 93.7657 42.6837 93.7329 42.6538C93.7003 42.6241 93.6685 42.5935 93.6374 42.5618C93.6063 42.5304 93.5761 42.4982 93.5468 42.4652C93.5172 42.4323 93.4885 42.3986 93.4607 42.3642C93.4329 42.3297 93.4059 42.2947 93.3799 42.259C93.354 42.223 93.329 42.1866 93.3047 42.1496C93.2803 42.1126 93.257 42.0751 93.2347 42.0369C93.2124 41.9986 93.191 41.9599 93.1704 41.9207C93.1499 41.8815 93.1305 41.8418 93.1122 41.8015C93.0936 41.7611 93.0761 41.7203 93.0595 41.6794C93.0432 41.6381 93.0278 41.5966 93.0133 41.5549C92.999 41.5129 92.9857 41.4707 92.9734 41.4282C92.6757 40.3946 92.7689 39.1697 92.7768 38.101L92.7828 35.6277V26.7506L92.7832 19.7435C92.7843 18.507 92.7287 17.2352 92.8148 16.003C92.861 15.3368 92.9719 14.7385 93.2983 14.1473C93.6882 13.4399 94.295 13.1277 95.0439 12.9157Z" fill="black"/>
<path d="M105.337 21.1002C106.101 21.0111 106.921 21.1243 107.55 21.5954C108.192 22.0758 108.482 22.7982 108.587 23.5736C108.744 24.7228 108.709 25.889 108.709 27.0469L108.708 31.4824L108.716 36.8048C108.716 38.0047 108.763 39.2235 108.628 40.4166C108.551 41.0916 108.448 41.7591 108.021 42.3119C107.593 42.8674 106.992 43.2294 106.297 43.3199C106.289 43.3218 106.281 43.3237 106.273 43.3256C105.669 43.4602 104.949 43.3294 104.427 43.0013C103.767 42.5872 103.359 41.9103 103.198 41.1565C102.951 40.0018 103.024 38.7419 103.025 37.5663L103.029 33.1252L103.03 27.4049C103.029 26.3436 102.966 25.2306 103.059 24.1743C103.118 23.4946 103.262 22.7342 103.639 22.1584C104.045 21.5392 104.63 21.2443 105.337 21.1002Z" fill="black"/>
<path d="M105.334 12.9154C106.139 12.8365 106.916 13.0141 107.558 13.5264C108.177 14.0214 108.617 14.7636 108.697 15.5595C108.771 16.2919 108.526 17.0898 108.057 17.6549C107.598 18.2088 106.971 18.535 106.259 18.6055C105.754 18.7433 105.028 18.5939 104.566 18.3685C103.9 18.0433 103.397 17.437 103.159 16.737C103.144 16.6934 103.13 16.6494 103.118 16.605C103.105 16.5607 103.093 16.516 103.082 16.4711C103.071 16.4262 103.062 16.381 103.053 16.3356C103.045 16.2902 103.038 16.2445 103.031 16.1988C103.025 16.153 103.02 16.1071 103.016 16.0611C103.012 16.0151 103.01 15.969 103.008 15.9228C103.006 15.8766 103.006 15.8304 103.007 15.7843C103.007 15.7381 103.009 15.6919 103.012 15.6458C103.015 15.5997 103.019 15.5537 103.024 15.5078C103.029 15.4619 103.036 15.4162 103.043 15.3706C103.051 15.325 103.059 15.2797 103.069 15.2345C103.079 15.1894 103.09 15.1445 103.101 15.0998C103.113 15.0552 103.126 15.0109 103.141 14.967C103.155 14.923 103.17 14.8794 103.186 14.8362C103.203 14.793 103.22 14.7502 103.238 14.7079C103.257 14.6655 103.276 14.6237 103.297 14.5823C103.715 13.7325 104.456 13.2056 105.334 12.9154Z" fill="white"/>
<path d="M24.7528 0H31.0475C31.9335 0.387218 32.9814 0.450757 33.9226 0.650147C34.4932 0.77519 35.0594 0.917774 35.6212 1.0779C36.183 1.23803 36.7393 1.41539 37.2902 1.60999C37.5232 1.69333 37.7551 1.77976 37.9857 1.86928C38.2165 1.95879 38.446 2.05137 38.6741 2.14701C38.9024 2.24264 39.1294 2.3413 39.355 2.44298C39.5808 2.54467 39.8051 2.64934 40.028 2.757C40.2508 2.86466 40.4722 2.97527 40.6923 3.08883C40.9121 3.20239 41.1305 3.31886 41.3473 3.43825C41.5643 3.55763 41.7796 3.67987 41.9932 3.80498C42.2067 3.93011 42.4187 4.05806 42.629 4.18884C42.8393 4.31959 43.0477 4.45313 43.2542 4.58944C43.461 4.72577 43.6659 4.86482 43.8689 5.00659C44.072 5.14838 44.2731 5.29285 44.4724 5.43999C44.6714 5.58714 44.8685 5.7369 45.0638 5.88928C45.259 6.04168 45.4523 6.19665 45.6436 6.35421C45.8345 6.51174 46.0235 6.67179 46.2105 6.83438C46.3973 6.99696 46.5819 7.162 46.7643 7.32951C46.9471 7.49702 47.1274 7.66692 47.3054 7.83921C47.4833 8.01152 47.659 8.18617 47.8325 8.36316C48.0057 8.54014 48.1766 8.71942 48.3453 8.90098C48.514 9.08252 48.6802 9.26627 48.8439 9.45224C49.0075 9.63822 49.1688 9.82635 49.3277 10.0166C49.4864 10.2069 49.6427 10.3993 49.7966 10.5937C49.9502 10.7881 50.1013 10.9846 50.2496 11.183C50.398 11.3815 50.5439 11.5819 50.6873 11.7842C50.8304 11.9866 50.9708 12.1908 51.1084 12.3969C51.2462 12.603 51.3813 12.8109 51.5137 13.0206C51.6458 13.2303 51.7752 13.4417 51.9021 13.6548C52.0286 13.868 52.1523 14.0828 52.2731 14.2992C52.3942 14.5156 52.5124 14.7336 52.6277 14.9532C52.7427 15.1728 52.8549 15.3939 52.9642 15.6165C53.0737 15.8391 53.1801 16.0631 53.2834 16.2885C53.3869 16.5139 53.4873 16.7406 53.5845 16.9687C53.6821 17.1968 53.7764 17.4261 53.8677 17.6567C53.9524 17.8685 54.0346 18.0813 54.1143 18.2951C54.194 18.509 54.271 18.7237 54.3451 18.9395C54.4196 19.1552 54.4913 19.3718 54.5602 19.5893C54.6291 19.8068 54.6954 20.0251 54.7591 20.2442C54.8228 20.4633 54.8838 20.6832 54.9422 20.9038C55.0004 21.1245 55.0559 21.3458 55.1088 21.5678C55.1614 21.7898 55.2114 22.0125 55.2588 22.2357C55.3061 22.4589 55.3508 22.6827 55.3926 22.9071C55.4345 23.1314 55.4736 23.3563 55.5099 23.5816C55.546 23.8069 55.5795 24.0326 55.6103 24.2588C55.6411 24.4849 55.6691 24.7114 55.6942 24.9383C55.7195 25.1651 55.7419 25.3922 55.7615 25.6196C55.781 25.847 55.7978 26.0746 55.8118 26.3024C55.8259 26.5302 55.8372 26.7581 55.8457 26.9862C55.8542 27.2143 55.8598 27.4425 55.8626 27.6707C55.8654 27.8989 55.8654 28.1271 55.8626 28.3553C55.8598 28.5835 55.8542 28.8117 55.8457 29.0398C55.8374 29.2679 55.8262 29.4958 55.8122 29.7236C55.7982 29.9514 55.7814 30.179 55.7618 30.4064C55.7423 30.6338 55.7198 30.8609 55.6945 31.0878C55.6695 31.3146 55.6415 31.5411 55.6107 31.7672C55.5801 31.9934 55.5466 32.2191 55.5103 32.4444C55.474 32.6698 55.4349 32.8946 55.393 33.119C55.3514 33.3433 55.3069 33.5671 55.2595 33.7904C55.2122 34.0136 55.1621 34.2362 55.1095 34.4583C55.0566 34.6803 55.0011 34.9016 54.943 35.1223C54.8848 35.3429 54.8239 35.5628 54.7602 35.7819C54.6966 36.0011 54.6303 36.2194 54.5613 36.4369C54.4924 36.6544 54.4207 36.871 54.3463 37.0867C54.2721 37.3025 54.1951 37.5173 54.1154 37.7312C54.036 37.9449 53.9538 38.1577 53.8688 38.3696C53.7841 38.5813 53.6967 38.792 53.6067 39.0016C53.514 39.2158 53.4187 39.4289 53.321 39.6408C53.223 39.8528 53.1225 40.0633 53.0195 40.2725C52.9164 40.4819 52.8108 40.6899 52.7025 40.8966C52.5942 41.1035 52.4834 41.3089 52.3701 41.5128C52.2569 41.7169 52.1411 41.9194 52.0227 42.1203C51.9044 42.3214 51.7836 42.521 51.6603 42.7191C51.537 42.9172 51.4113 43.1138 51.2832 43.3089C51.1551 43.5038 51.0247 43.6971 50.8918 43.8889C50.759 44.0807 50.6237 44.2708 50.4861 44.4591C50.3485 44.6474 50.2087 44.8341 50.0665 45.0191C49.9242 45.2039 49.7797 45.3869 49.633 45.5682C49.4862 45.7494 49.3371 45.9289 49.186 46.1067C49.0349 46.2842 48.8816 46.4598 48.7262 46.6335C48.5708 46.8075 48.4131 46.9793 48.2532 47.149C48.0935 47.3189 47.9317 47.4869 47.7678 47.6528C47.6039 47.8185 47.438 47.9821 47.27 48.1438C47.1021 48.3057 46.9321 48.4653 46.7602 48.6227C46.5883 48.7803 46.4144 48.9357 46.2387 49.0888C46.063 49.2419 45.8854 49.3929 45.706 49.5417C45.5265 49.6903 45.3453 49.8367 45.1623 49.981C44.9791 50.1253 44.7942 50.2673 44.6077 50.4068C44.4212 50.5466 44.233 50.684 44.043 50.819C43.853 50.9537 43.6614 51.0862 43.4682 51.2164C43.2749 51.3467 43.08 51.4745 42.8835 51.5999C42.687 51.7251 42.4891 51.848 42.2898 51.9684C42.0903 52.0891 41.8893 52.2071 41.6868 52.3225C41.4845 52.4379 41.2808 52.5508 41.0758 52.6611C40.8705 52.7715 40.664 52.8792 40.4562 52.9843C40.2484 53.0896 40.0392 53.1923 39.8287 53.2924C39.6184 53.3924 39.4068 53.4899 39.194 53.5846C38.9812 53.6794 38.7673 53.7716 38.5523 53.8611C38.3374 53.9506 38.1214 54.0373 37.9041 54.1213C37.236 54.3787 36.5591 54.6101 35.8735 54.8155C35.1878 55.0209 34.4953 55.1999 33.796 55.3525C33.0795 55.5113 31.3117 55.7406 30.7778 56H25.0048C24.4659 55.7077 21.8903 55.3355 21.0883 55.1417C18.2622 54.4595 15.533 53.2147 13.0785 51.6633C12.905 51.5534 12.7328 51.4416 12.5618 51.3277C12.3908 51.214 12.2211 51.0985 12.0526 50.9811C11.8842 50.8635 11.717 50.744 11.5512 50.6229C11.3853 50.5019 11.2208 50.379 11.0577 50.2541C10.8945 50.1294 10.7327 50.0028 10.5723 49.8743C10.412 49.7461 10.253 49.616 10.0955 49.484C9.9379 49.3523 9.78182 49.2188 9.62722 49.0835C9.47262 48.9483 9.31951 48.8113 9.16789 48.6725C9.01627 48.534 8.86619 48.3937 8.71766 48.2516C8.56912 48.1096 8.42215 47.966 8.27675 47.821C8.13134 47.6757 7.98756 47.5289 7.84539 47.3805C7.7032 47.2322 7.56265 47.0822 7.42377 46.9306C7.28486 46.7793 7.14763 46.6263 7.01208 46.4717C6.87655 46.3173 6.74271 46.1615 6.61057 46.0041C6.47845 45.8465 6.34806 45.6876 6.2194 45.5274C6.09074 45.367 5.96387 45.2053 5.83877 45.0421C5.71364 44.8789 5.59032 44.7145 5.4688 44.5489C5.34731 44.3829 5.22764 44.2157 5.10978 44.0473C4.99193 43.8789 4.87594 43.7092 4.76182 43.5382C4.64767 43.3673 4.53543 43.195 4.42509 43.0216C4.31473 42.8479 4.20627 42.6731 4.09972 42.4974C3.9932 42.3214 3.88861 42.1443 3.78597 41.9661C3.6833 41.7881 3.5826 41.6088 3.48387 41.4283C3.38514 41.2481 3.2884 41.0667 3.19364 40.8842C3.09889 40.7014 3.00614 40.5177 2.9154 40.3332C2.82467 40.1487 2.73597 39.9631 2.64929 39.7766C2.56262 39.5901 2.478 39.4026 2.39543 39.2143C2.31287 39.0258 2.23237 38.8365 2.15395 38.6464C2.07553 38.4563 1.9992 38.2654 1.92496 38.0736C1.85072 37.8815 1.77859 37.6888 1.70857 37.4955C1.63855 37.302 1.57066 37.1078 1.50489 36.9129C1.43912 36.718 1.3755 36.5224 1.31402 36.326C1.1057 35.6318 0.918319 34.932 0.751882 34.2265C0.585442 33.521 0.440242 32.8111 0.316282 32.0969C0.260386 31.7817 0.181873 30.6223 0 30.4518V25.397C0.161283 25.2754 0.161221 24.8658 0.194309 24.6666C0.57709 22.3613 1.0134 20.3023 1.85572 18.1078C1.94501 17.8719 2.03744 17.6373 2.13303 17.4039C2.22862 17.1705 2.32733 16.9384 2.42915 16.7077C2.53098 16.4769 2.63588 16.2476 2.74387 16.0197C2.85186 15.7918 2.96288 15.5654 3.07695 15.3405C3.19102 15.1156 3.30809 14.8923 3.42815 14.6706C3.54822 14.4488 3.67124 14.2288 3.79721 14.0104C3.92319 13.792 4.05209 13.5753 4.1839 13.3604C4.3157 13.1454 4.45036 12.9323 4.58789 12.7211C4.72542 12.5097 4.86576 12.3004 5.00891 12.0929C5.15206 11.8854 5.29796 11.6798 5.44662 11.4763C5.59531 11.2727 5.74669 11.0712 5.90076 10.8718C6.05486 10.6723 6.21161 10.475 6.371 10.2798C6.53039 10.0845 6.69237 9.89151 6.85695 9.70067C7.02152 9.50983 7.18863 9.32124 7.35827 9.1349C7.52791 8.94856 7.70002 8.76456 7.8746 8.5829C8.04918 8.40121 8.22617 8.22192 8.40556 8.04503C8.58497 7.86814 8.76672 7.69371 8.9508 7.52172C9.13488 7.34974 9.32124 7.18028 9.50988 7.01335C9.69851 6.84639 9.88937 6.68203 10.0824 6.52025C10.2755 6.35847 10.4707 6.19932 10.668 6.0428C10.8653 5.8863 11.0647 5.73248 11.2662 5.58133C11.4677 5.43022 11.6711 5.28185 11.8766 5.13624C12.082 4.99062 12.2894 4.8478 12.4987 4.70777C12.708 4.56776 12.9191 4.4306 13.1321 4.29628C13.345 4.16198 13.5598 4.03057 13.7763 3.90205C13.9928 3.77354 14.211 3.64798 14.4308 3.52537C14.6507 3.40276 14.8722 3.28314 15.0953 3.16652C15.3184 3.04989 15.543 2.9363 15.7691 2.82575C15.9953 2.71519 16.2229 2.60771 16.4519 2.50331C16.6809 2.3989 16.9113 2.29761 17.1431 2.19943C17.3748 2.10126 17.6078 2.00623 17.8421 1.91435C18.0764 1.82247 18.3119 1.73378 18.5486 1.64826C19.0871 1.45207 19.6312 1.27281 20.1807 1.1105C20.7303 0.94819 21.2844 0.803137 21.843 0.675341C22.8037 0.464212 23.8482 0.403038 24.7528 0Z" fill="white"/>
<path d="M20.9642 12.8921C21.1925 12.7151 21.4983 12.6912 21.7773 12.6748C22.8659 12.6112 23.9685 12.6903 25.0581 12.6904L31.1692 12.6667C32.3211 12.6667 33.4757 12.6867 34.6273 12.672C35.8333 12.6567 37.0386 12.5695 38.2401 12.7246C40.1557 12.9718 41.9807 14.0908 43.1601 15.6222C44.0436 16.7694 44.5869 18.1843 44.8234 19.6071C45.0107 20.7332 44.8866 21.872 44.8885 23.0085L44.8937 29.9296C44.8915 31.0263 44.8633 32.1265 44.8761 33.2226C44.887 34.1581 44.9825 35.0806 44.8637 36.0133C44.8246 36.3207 44.7501 36.6231 44.7027 36.9293C44.6817 37.0653 44.6862 37.2047 44.6535 37.3391C44.4144 38.3155 43.9312 39.3782 43.3338 40.1848C43.168 40.4084 42.9669 40.6087 42.7856 40.8199C42.4363 41.2275 42.1175 41.6035 41.6882 41.9335C41.1437 42.352 40.0316 42.9882 39.3616 43.1308C37.4892 43.5297 35.7188 43.4468 33.8212 43.4475L28.334 43.4456L24.4008 43.4192C23.2232 43.4196 22.0763 43.4769 20.9017 43.3201C19.8965 43.1854 18.9927 42.8985 18.079 42.4588C17.8787 42.3622 17.6527 42.2679 17.4747 42.1337C17.0796 41.8354 16.7908 41.441 16.439 41.0997C16.1764 40.8451 15.8215 40.637 15.6059 40.3413C15.3931 40.0494 15.5632 39.9043 15.1539 39.7576C15.0331 39.6327 14.9737 39.4268 14.9069 39.2681C14.4277 38.1296 14.1357 36.8631 14.0222 35.6337C13.8787 34.0783 13.9446 32.4735 13.9453 30.9113C13.9459 29.637 13.8884 28.3626 13.906 27.089C13.9104 26.7731 14.0349 25.8303 13.8766 25.5842C13.742 25.6651 13.6383 25.7561 13.5475 25.8852C13.2379 26.3255 10.7109 28.1038 10.1815 28.2035C10.0798 28.2226 9.97957 28.226 9.88956 28.1749C9.55287 26.7669 8.81885 25.1128 8.0528 23.8836C8.41957 23.8674 8.79028 23.8211 9.15265 23.7632C9.68559 23.678 13.3586 22.8751 13.5367 22.6286C13.5298 22.5677 13.5361 22.5461 13.4966 22.4955C13.023 21.8902 8.97564 21.2818 7.98486 21.1423C8.87322 20.1497 9.43053 18.1154 9.9513 16.8655C11.0867 17.4897 12.1764 18.286 13.1395 19.153C13.5169 19.4928 13.8607 19.8668 14.2416 20.2041C14.4381 18.5421 14.938 17.0051 15.9977 15.6882C17.2131 14.1779 19.0277 13.0988 20.9642 12.8921Z" fill="black"/>
<path d="M20.9648 12.8921C21.193 12.7151 21.4989 12.6912 21.7778 12.6748C22.8664 12.6112 23.969 12.6903 25.0586 12.6904L31.1698 12.6667C32.3217 12.6667 33.4763 12.6867 34.6279 12.672C35.8339 12.6567 37.0391 12.5695 38.2406 12.7246C40.1562 12.9718 41.9812 14.0908 43.1607 15.6222C44.0442 16.7694 44.5875 18.1843 44.824 19.6071C45.0112 20.7332 44.8872 21.872 44.889 23.0085L44.8943 29.9296C44.892 31.0263 44.8639 32.1265 44.8766 33.2226C44.8875 34.1581 44.983 35.0806 44.8642 36.0133C44.8251 36.3207 44.7507 36.6231 44.7033 36.9293C44.6823 37.0653 44.6868 37.2047 44.6541 37.3391C44.4149 38.3155 43.9318 39.3782 43.3344 40.1848C43.1686 40.4084 42.9674 40.6087 42.7862 40.8199C42.4369 41.2275 42.1181 41.6035 41.6887 41.9335C41.1443 42.352 40.0322 42.9882 39.3622 43.1308C37.4898 43.5297 35.7194 43.4468 33.8218 43.4475L28.3345 43.4456L24.4014 43.4192C23.2238 43.4196 22.0769 43.4769 20.9022 43.3201C19.8971 43.1854 18.9933 42.8985 18.0796 42.4588C17.8793 42.3622 17.6533 42.2679 17.4753 42.1337C17.0802 41.8354 16.7914 41.441 16.4396 41.0997C16.177 40.8451 15.8221 40.637 15.6065 40.3413C15.3936 40.0494 15.5637 39.9043 15.1545 39.7576C15.0337 39.6327 14.9743 39.4268 14.9075 39.2681C14.4282 38.1296 14.1363 36.8631 14.0228 35.6337C13.8793 34.0783 13.9452 32.4735 13.9459 30.9113C13.9465 29.637 13.889 28.3626 13.9066 27.089C13.9109 26.7731 14.0355 25.8303 13.8772 25.5842C13.7425 25.6651 13.6389 25.7561 13.5481 25.8852C13.2384 26.3255 10.7115 28.1038 10.182 28.2035C10.0803 28.2226 9.98015 28.226 9.89014 28.1749C10.0064 28.0852 10.1684 28.0247 10.2984 27.9506C10.6277 27.7662 10.9484 27.5679 11.2607 27.3558C12.3685 26.5899 13.3224 25.7115 14.2928 24.782C14.2158 25.3305 14.2472 25.9092 14.2476 26.4621L14.2492 29.1539L14.2409 33.2556C14.2389 34.1359 14.2125 35.0252 14.2705 35.9038C14.4052 37.9441 15.2691 39.9024 16.8202 41.2554C17.7721 42.0862 18.9267 42.7454 20.1613 43.032C21.7695 43.4053 23.4902 43.3088 25.131 43.3046L30.0811 43.2971H34.3846C35.2601 43.2986 36.1509 43.3333 37.024 43.271C39.2637 43.1119 41.2609 42.2498 42.7467 40.5284C42.8014 40.464 42.855 40.3988 42.9076 40.3326C42.9603 40.2665 43.0119 40.1996 43.0625 40.132C43.1129 40.0641 43.1623 39.9956 43.2107 39.9265C43.2591 39.8571 43.3062 39.787 43.3521 39.7161C43.3982 39.6452 43.4432 39.5737 43.487 39.5015C43.5309 39.4291 43.5735 39.3561 43.6149 39.2824C43.6562 39.2087 43.6964 39.1345 43.7355 39.0595C43.7747 38.9846 43.8126 38.9091 43.8495 38.8329C43.8861 38.7567 43.9215 38.68 43.9559 38.6029C43.99 38.5254 44.0229 38.4476 44.0548 38.3694C44.0866 38.291 44.117 38.2121 44.1461 38.1326C44.1754 38.0534 44.2034 37.9737 44.23 37.8935C44.2568 37.8133 44.2822 37.7327 44.3063 37.6515C44.3303 37.5705 44.3532 37.4891 44.3747 37.4073C44.3963 37.3255 44.4166 37.2434 44.4356 37.161C44.4544 37.0785 44.472 36.9958 44.4883 36.9128C44.6924 35.8628 44.6018 34.7774 44.595 33.7152L44.5856 29.5766L44.5916 23.55C44.5962 22.321 44.6518 21.0793 44.5619 19.8528C44.4176 17.884 43.4092 16.0128 41.9226 14.7306C41.8597 14.6757 41.7958 14.6218 41.7308 14.569C41.6662 14.5162 41.6006 14.4644 41.5342 14.4137C41.468 14.3629 41.4009 14.3133 41.3327 14.2647C41.2648 14.2161 41.1961 14.1686 41.1266 14.1222C41.0572 14.0758 40.987 14.0306 40.9161 13.9864C40.8452 13.9423 40.7736 13.8993 40.7014 13.8575C40.6292 13.8156 40.5563 13.775 40.4826 13.7354C40.4089 13.6959 40.3347 13.6576 40.26 13.6205C40.1853 13.5833 40.11 13.5474 40.0341 13.5127C39.9581 13.478 39.8817 13.4445 39.8047 13.4122C39.7275 13.3799 39.6499 13.3489 39.572 13.3191C39.494 13.2893 39.4156 13.2607 39.3366 13.2335C39.2579 13.2062 39.1787 13.1802 39.099 13.1554C39.0193 13.1307 38.9391 13.1073 38.8584 13.0851C38.7779 13.0629 38.6972 13.042 38.6162 13.0224C38.535 13.0029 38.4536 12.9846 38.3719 12.9676C37.1777 12.7265 35.9421 12.8056 34.7324 12.8131L30.6445 12.8236L25.2565 12.813C23.8258 12.8085 22.3924 12.7827 20.9648 12.8921Z" fill="#FDBC00"/>
<path d="M21.4084 18.38C22.4512 18.3177 23.5026 18.3622 24.5469 18.3637L29.9093 18.363L34.7811 18.3648C35.6687 18.3641 36.572 18.3169 37.4573 18.3777C37.9598 18.4121 38.4512 18.4932 38.9305 18.6514C38.9706 18.6648 39.0106 18.6787 39.0505 18.693C39.0903 18.7074 39.13 18.7223 39.1696 18.7377C39.209 18.753 39.2483 18.7689 39.2877 18.7852C39.3268 18.8015 39.3657 18.8183 39.4043 18.8356C39.4429 18.8529 39.4813 18.8706 39.5197 18.8888C39.558 18.9071 39.596 18.9258 39.6336 18.9449C39.6714 18.9641 39.709 18.9837 39.7464 19.0038C39.7837 19.0239 39.8208 19.0444 39.8577 19.0654C39.8945 19.0864 39.9311 19.1078 39.9675 19.1297C40.0038 19.1516 40.0398 19.1739 40.0754 19.1967C40.1112 19.2195 40.1467 19.2427 40.1818 19.2663C40.2171 19.29 40.2521 19.3141 40.2867 19.3386C40.3213 19.3631 40.3555 19.388 40.3893 19.4133C40.4234 19.4387 40.4571 19.4644 40.4904 19.4906C40.5238 19.5168 40.5569 19.5434 40.5897 19.5703C40.6223 19.5973 40.6546 19.6247 40.6867 19.6525C40.7188 19.6802 40.7505 19.7084 40.7818 19.737C40.8132 19.7655 40.8442 19.7945 40.8751 19.8238C40.9057 19.8531 40.9359 19.8828 40.9657 19.9129C40.9958 19.9429 41.0253 19.9734 41.0544 20.0042C41.0837 20.0349 41.1126 20.0661 41.1409 20.0976C41.1692 20.1291 41.1973 20.1609 41.2251 20.1931C41.2527 20.2253 41.2799 20.2578 41.3067 20.2906C41.3335 20.3235 41.36 20.3567 41.386 20.3902C41.4121 20.4237 41.4378 20.4575 41.4631 20.4916C41.4882 20.5258 41.513 20.5602 41.5375 20.595C41.5619 20.6297 41.5858 20.6647 41.6094 20.7001C41.6329 20.7354 41.656 20.771 41.6785 20.8069C41.7011 20.8428 41.7233 20.879 41.7451 20.9154C41.7669 20.9519 41.7882 20.9886 41.809 21.0255C41.8301 21.0625 41.8505 21.0997 41.8703 21.1372C41.8903 21.1747 41.9099 21.2124 41.9289 21.2503C41.9831 21.36 42.0328 21.4718 42.0782 21.5855C42.1236 21.6992 42.1643 21.8146 42.2004 21.9316C42.2367 22.0486 42.2682 22.1668 42.2948 22.2863C42.3216 22.4058 42.3435 22.5262 42.3606 22.6475C42.4985 23.6411 42.4061 24.665 42.4076 25.6653C42.4091 26.6611 42.4861 27.6603 42.3978 28.6544C42.39 28.7513 42.3792 28.8478 42.3654 28.9439C42.3514 29.0401 42.3344 29.1357 42.3143 29.2308C42.2943 29.3259 42.2712 29.4202 42.2451 29.5137C42.2188 29.6073 42.1896 29.6999 42.1575 29.7916C42.1442 29.8307 42.1305 29.8697 42.1162 29.9085C42.1021 29.9474 42.0875 29.986 42.0722 30.0245C42.0571 30.0629 42.0415 30.1012 42.0252 30.1393C42.0091 30.1774 41.9926 30.2152 41.9756 30.2529C41.9585 30.2906 41.9411 30.328 41.9233 30.3652C41.9053 30.4024 41.8868 30.4395 41.868 30.4762C41.849 30.513 41.8297 30.5496 41.8101 30.5859C41.7903 30.6222 41.77 30.6582 41.7492 30.694C41.7287 30.7298 41.7076 30.7653 41.6861 30.8006C41.6645 30.8359 41.6426 30.8709 41.6203 30.9056C41.5977 30.9403 41.5749 30.9748 41.5518 31.009C41.5285 31.0431 41.5048 31.077 41.4808 31.1106C41.4567 31.1442 41.4323 31.1774 41.4075 31.2104C41.3824 31.2434 41.3571 31.2761 41.3315 31.3084C41.3057 31.3407 41.2796 31.3728 41.2533 31.4045C41.2267 31.4362 41.1998 31.4676 41.1725 31.4986C41.1454 31.5296 41.1178 31.5603 41.0898 31.5907C41.0617 31.6211 41.0332 31.6511 41.0044 31.6807C40.9758 31.7104 40.9468 31.7397 40.9172 31.7686C40.8879 31.7975 40.858 31.8261 40.8277 31.8543C40.7976 31.8825 40.7672 31.9103 40.7363 31.9377C40.7055 31.9652 40.6743 31.9922 40.6427 32.0189C40.6111 32.0456 40.5793 32.0718 40.5472 32.0977C40.5149 32.1236 40.4824 32.1491 40.4498 32.1741C40.417 32.1992 40.3839 32.2239 40.3506 32.2481C40.317 32.2724 40.2833 32.2962 40.2494 32.3197C40.2154 32.3431 40.181 32.3661 40.1464 32.3886C40.1118 32.4112 40.077 32.4334 40.0419 32.4551C40.0068 32.4768 39.9715 32.4981 39.9359 32.5189C39.9003 32.5397 39.8644 32.5601 39.8284 32.5801C39.7923 32.6 39.7559 32.6195 39.7193 32.6386C39.6827 32.6576 39.6459 32.6762 39.6088 32.6944C38.0007 33.4669 36.3082 33.2144 34.6933 32.6339C33.5975 32.2088 32.7322 31.4993 31.8284 30.7703C30.3919 29.6116 28.8837 29.4302 27.3601 30.5573C26.7249 31.0273 26.1735 31.5934 25.5061 32.0244C25.4453 32.064 25.3838 32.1028 25.3218 32.1406C25.2598 32.1785 25.1973 32.2154 25.1341 32.2513C25.0711 32.2873 25.0074 32.3223 24.9433 32.3564C24.8791 32.3905 24.8145 32.4236 24.7494 32.4557C24.6842 32.4878 24.6186 32.519 24.5526 32.5491C24.4865 32.5793 24.42 32.6085 24.3531 32.6367C24.2862 32.6648 24.2188 32.692 24.1511 32.7182C24.0833 32.7443 24.0152 32.7695 23.9468 32.7936C23.8783 32.8177 23.8095 32.8408 23.7403 32.8629C23.6711 32.885 23.6016 32.906 23.5318 32.926C23.4621 32.946 23.392 32.9649 23.3216 32.9828C23.2513 33.0007 23.1807 33.0176 23.1098 33.0333C23.0389 33.0491 22.9679 33.0638 22.8966 33.0775C22.8253 33.0911 22.7538 33.1037 22.6821 33.1152C22.6104 33.1268 22.5386 33.1372 22.4666 33.1465C22.3947 33.1559 22.3226 33.1642 22.2503 33.1714C20.7844 33.3284 19.3678 32.9963 18.2062 32.0517C17.1164 31.1656 16.5364 29.9365 16.3981 28.5516C16.3108 27.678 16.3591 26.7898 16.3564 25.913C16.3504 23.9374 16.1769 21.9046 17.5186 20.2734C18.517 19.0595 19.8892 18.5255 21.4084 18.38Z" fill="#FDBC00"/>
<path d="M29.2778 18.4561C30.1253 18.52 30.991 18.4953 31.8413 18.5003L35.2209 18.5273C36.2575 18.5253 37.3246 18.4332 38.3458 18.6577C38.9737 18.7957 39.5542 19.1055 40.122 19.3956C40.4024 19.9047 40.9438 20.2089 41.3104 20.652C41.8033 21.2476 42.0353 22.1033 42.15 22.8592C42.2079 23.2425 42.1748 23.652 42.1812 24.0396C42.206 25.051 42.209 26.0625 42.1902 27.074C42.1838 27.5897 42.2278 28.1265 42.1816 28.6392C42.1056 29.4882 41.3841 31.2233 40.7092 31.7795C40.5419 31.9177 40.3539 32.0064 40.1765 32.1279C39.9896 32.256 39.8242 32.4309 39.6234 32.5356C38.7782 32.9765 37.6337 33.0721 36.6961 32.9802C35.4891 32.8619 33.8701 32.307 32.9447 31.5032C32.8077 31.3841 32.712 31.214 32.5961 31.0746C32.3719 30.8049 32.066 30.7421 31.7797 30.5695C31.5771 30.4473 31.4139 30.2457 31.2276 30.0987C30.755 29.7258 30.0363 29.6506 29.4562 29.593C29.1234 29.6034 28.758 29.6867 28.4368 29.7728C27.0595 30.1424 26.6533 30.9464 25.6172 31.7382C24.8477 32.3262 23.7957 32.7771 22.843 32.9463C22.3431 33.0351 21.854 32.9947 21.3517 32.9695C21.0267 32.9531 20.6923 32.9771 20.3696 32.9364C19.6917 32.8508 18.9088 32.3724 18.4043 31.9272C18.0456 31.6109 17.7708 31.1581 17.3798 30.89L17.3421 30.8646C17.2176 30.2646 16.8146 29.7831 16.7192 29.1756C16.5632 28.1811 16.6814 27.1353 16.6716 26.132C16.6624 25.1891 16.5375 23.6918 16.663 22.8109C16.7463 22.2265 16.9641 21.4483 17.3193 20.9672C18.0807 19.936 19.2465 19.0497 20.5099 18.7471C20.6753 18.7075 20.8394 18.7671 21.0016 18.7338C21.2582 18.6813 21.4919 18.5398 21.7573 18.5192C22.5209 18.4598 23.2946 18.5266 24.0596 18.5294C25.0109 18.5328 25.9625 18.489 26.9137 18.5049C27.6992 18.5181 28.4981 18.5686 29.2778 18.4561Z" fill="white"/>
<path d="M24.2612 23.6876C24.736 23.646 25.2029 23.71 25.6198 23.952C25.6498 23.9697 25.6793 23.9881 25.7084 24.0072C25.7374 24.0263 25.766 24.0461 25.7942 24.0666C25.8223 24.0871 25.8499 24.1083 25.877 24.1301C25.9041 24.1519 25.9306 24.1744 25.9567 24.1976C25.9827 24.2207 26.0081 24.2445 26.033 24.2688C26.0578 24.2932 26.0821 24.3182 26.1058 24.3437C26.1294 24.3693 26.1524 24.3954 26.1748 24.4221C26.1972 24.4488 26.219 24.476 26.24 24.5037C26.2611 24.5314 26.2815 24.5597 26.3012 24.5884C26.3209 24.6171 26.3399 24.6463 26.3582 24.676C26.3765 24.7056 26.3941 24.7357 26.411 24.7662C26.4278 24.7967 26.4439 24.8276 26.4592 24.8589C26.4746 24.8902 26.4892 24.9218 26.503 24.9538C26.5168 24.9858 26.5299 25.0181 26.5421 25.0507C26.5544 25.0834 26.5658 25.1163 26.5765 25.1495C26.5872 25.1827 26.597 25.2161 26.6061 25.2498C26.6147 25.2835 26.6225 25.3175 26.6295 25.3517C26.6364 25.3859 26.6425 25.4203 26.6478 25.4548C26.653 25.4892 26.6575 25.5238 26.661 25.5585C26.6646 25.5932 26.6673 25.628 26.6692 25.6628C26.671 25.6977 26.672 25.7325 26.6721 25.7674C26.6723 25.8023 26.6716 25.8372 26.67 25.872C26.6684 25.9069 26.666 25.9417 26.6627 25.9764C26.6594 26.0111 26.6553 26.0458 26.6503 26.0803C26.6453 26.1148 26.6395 26.1492 26.6328 26.1834C26.6261 26.2177 26.6186 26.2517 26.6103 26.2856C26.6019 26.3195 26.5927 26.3531 26.5827 26.3865C26.5727 26.42 26.5619 26.4531 26.5503 26.4859C26.5387 26.5188 26.5262 26.5514 26.513 26.5837C26.4997 26.6159 26.4857 26.6479 26.4709 26.6794C26.4561 26.711 26.4405 26.7422 26.4242 26.773C26.4078 26.8038 26.3908 26.8342 26.3729 26.8641C26.0243 27.4521 25.5202 27.7381 24.8756 27.9054C24.4119 27.9173 24.0067 27.8833 23.5898 27.6617C23.5587 27.6451 23.5281 27.6277 23.4979 27.6096C23.4677 27.5914 23.4379 27.5725 23.4087 27.5529C23.3794 27.5333 23.3507 27.5129 23.3224 27.4918C23.2942 27.4708 23.2665 27.449 23.2393 27.4266C23.2121 27.4041 23.1855 27.381 23.1595 27.3572C23.1335 27.3334 23.1081 27.309 23.0833 27.2839C23.0585 27.2588 23.0344 27.2332 23.0108 27.2069C22.9873 27.1806 22.9644 27.1538 22.9423 27.1264C22.9201 27.099 22.8986 27.071 22.8778 27.0425C22.857 27.014 22.8369 26.985 22.8176 26.9555C22.7982 26.926 22.7796 26.8961 22.7618 26.8656C22.7439 26.8352 22.7268 26.8043 22.7105 26.7731C22.6942 26.7418 22.6787 26.7101 22.6639 26.678C22.6492 26.646 22.6353 26.6135 22.6221 26.5808C22.609 26.548 22.5967 26.515 22.5852 26.4816C22.5737 26.4482 22.563 26.4146 22.5532 26.3807C22.393 25.8383 22.447 25.2614 22.7253 24.7671C23.0666 24.1609 23.6115 23.867 24.2612 23.6876Z" fill="black"/>
<path d="M33.9808 23.6922C34.4399 23.6308 34.9548 23.748 35.3506 23.9854C35.38 24.0031 35.4089 24.0216 35.4374 24.0408C35.4658 24.06 35.4938 24.0799 35.5213 24.1005C35.5487 24.1211 35.5757 24.1424 35.6021 24.1644C35.6285 24.1864 35.6543 24.209 35.6796 24.2322C35.7049 24.2555 35.7296 24.2794 35.7536 24.3039C35.7777 24.3284 35.8012 24.3535 35.824 24.3791C35.8468 24.4048 35.869 24.431 35.8905 24.4578C35.912 24.4846 35.9329 24.5119 35.953 24.5398C35.9732 24.5676 35.9926 24.5959 36.0114 24.6248C36.0301 24.6536 36.0481 24.6828 36.0654 24.7126C36.0827 24.7423 36.0992 24.7724 36.115 24.803C36.1308 24.8335 36.1458 24.8645 36.16 24.8958C36.1742 24.9271 36.1877 24.9587 36.2003 24.9907C36.213 25.0227 36.2248 25.0549 36.2358 25.0875C36.2469 25.1201 36.2571 25.1529 36.2665 25.186C36.2759 25.2191 36.2844 25.2524 36.2922 25.2859C36.3004 25.3203 36.3077 25.3549 36.3142 25.3897C36.3207 25.4245 36.3263 25.4594 36.3311 25.4945C36.3358 25.5296 36.3397 25.5647 36.3427 25.6C36.3458 25.6352 36.3479 25.6705 36.3492 25.7059C36.3505 25.7413 36.3509 25.7767 36.3504 25.812C36.3499 25.8474 36.3486 25.8828 36.3464 25.9181C36.3442 25.9534 36.3411 25.9886 36.3372 26.0238C36.3332 26.059 36.3284 26.094 36.3227 26.1289C36.317 26.1639 36.3105 26.1986 36.3031 26.2332C36.2957 26.2678 36.2875 26.3022 36.2784 26.3364C36.2693 26.3706 36.2593 26.4046 36.2485 26.4383C36.2378 26.472 36.2262 26.5054 36.2138 26.5385C36.2014 26.5716 36.1881 26.6044 36.1741 26.6369C36.16 26.6693 36.1452 26.7014 36.1296 26.7332C36.114 26.7649 36.0976 26.7962 36.0804 26.8271C36.0632 26.8581 36.0453 26.8885 36.0266 26.9185C35.6739 27.4863 35.1455 27.7466 34.5162 27.8983C34.0469 27.939 33.576 27.8551 33.1696 27.6101C32.6756 27.3123 32.3294 26.806 32.1993 26.2457C32.1914 26.212 32.1844 26.1781 32.1782 26.1441C32.1721 26.1101 32.1667 26.0759 32.1623 26.0416C32.1578 26.0073 32.1542 25.9729 32.1514 25.9385C32.1487 25.904 32.1468 25.8694 32.1457 25.8349C32.1447 25.8003 32.1445 25.7657 32.1452 25.7311C32.1458 25.6966 32.1474 25.662 32.1498 25.6275C32.1522 25.593 32.1555 25.5585 32.1596 25.5242C32.1637 25.4899 32.1686 25.4556 32.1745 25.4216C32.1803 25.3875 32.1869 25.3535 32.1944 25.3198C32.2019 25.286 32.2103 25.2525 32.2194 25.2191C32.2286 25.1858 32.2386 25.1527 32.2494 25.1198C32.2603 25.087 32.2719 25.0544 32.2843 25.0222C32.2968 24.9899 32.31 24.958 32.324 24.9264C32.338 24.8948 32.3528 24.8636 32.3684 24.8327C32.384 24.8018 32.4004 24.7714 32.4175 24.7413C32.4345 24.7113 32.4524 24.6817 32.471 24.6526C32.8276 24.0861 33.3467 23.8322 33.9808 23.6922Z" fill="black"/>
<path d="M22.0361 21.2696C22.7827 21.243 23.492 21.4003 24.2306 21.4669C24.981 21.5345 25.7356 21.5347 26.4815 21.6535C26.8242 21.7081 27.3053 21.7906 27.5137 22.1035C27.6087 22.2462 27.6186 22.418 27.5768 22.5811C27.5116 22.8352 27.3493 22.9868 27.1299 23.1089C26.265 23.2123 25.3716 23.0186 24.513 22.9236C23.856 22.851 23.1923 22.8192 22.5393 22.7141C22.2363 22.6653 21.834 22.6034 21.6498 22.326C21.5595 22.19 21.5453 22.0251 21.5759 21.8678C21.6352 21.5631 21.7963 21.4349 22.0361 21.2696Z" fill="black"/>
<path d="M36.1653 21.2922C36.4187 21.2543 36.7348 21.2312 36.9587 21.377C37.1393 21.4946 37.2151 21.7421 37.2503 21.9454C37.2751 22.0885 37.2445 22.2288 37.1535 22.3436C37.0063 22.5293 36.7474 22.6252 36.5252 22.6825C35.9862 22.8213 35.4071 22.82 34.8542 22.87L32.38 23.1095C32.1259 23.1287 31.7543 23.1943 31.5315 23.0378C31.3795 22.9311 31.2914 22.6997 31.2667 22.5222C31.2409 22.3364 31.2762 22.1384 31.4013 21.9931C31.5345 21.8384 31.7484 21.7727 31.9405 21.7267C32.5939 21.5701 33.2949 21.5639 33.9635 21.5108C34.6983 21.4472 35.4323 21.3743 36.1653 21.2922Z" fill="black"/>
<path d="M153.935 31.9067C153.601 31.8918 153.61 32.1343 153.478 32.4019C153.18 33.0082 152.355 33.246 151.742 33.3765C151.032 33.5275 150.306 33.5753 149.583 33.5985C148.686 33.6272 147.784 33.6024 146.887 33.6012L142.084 33.6028C141.162 33.6033 140.207 33.5511 139.29 33.6178C139.154 33.6276 138.985 33.6312 138.883 33.7228C138.76 34.1476 139.072 35.2474 139.21 35.6824C139.647 37.0666 140.492 38.3993 141.817 39.0706C143.572 39.959 145.652 39.7659 147.33 38.796C147.96 38.4317 148.537 37.9528 149.077 37.4679C149.678 36.9284 150.276 36.1287 151.064 35.8734C151.649 35.6839 152.361 35.7051 152.91 35.996C153.313 36.2092 153.6 36.5581 153.728 36.9963C153.936 37.7088 153.693 38.4053 153.35 39.0336C152.283 40.9908 150.273 42.2375 148.184 42.845C145.087 43.7451 141.187 43.5981 138.326 42.0157C138.258 41.9783 138.19 41.9399 138.122 41.9007C138.055 41.8613 137.988 41.8212 137.922 41.7804C137.855 41.7395 137.789 41.6977 137.724 41.6552C137.659 41.6127 137.594 41.5694 137.53 41.5251C137.465 41.4809 137.401 41.4359 137.338 41.3901C137.275 41.3444 137.212 41.2979 137.151 41.2506C137.088 41.2033 137.027 41.1552 136.966 41.1062C136.905 41.0574 136.845 41.0079 136.786 40.9576C136.726 40.9071 136.667 40.8559 136.608 40.8041C136.55 40.7523 136.492 40.6998 136.435 40.6465C136.378 40.5932 136.322 40.5393 136.266 40.4847C136.211 40.4299 136.156 40.3745 136.101 40.3184C136.047 40.2626 135.993 40.2059 135.94 40.1483C135.887 40.091 135.835 40.0331 135.784 39.9745C135.732 39.9157 135.681 39.8563 135.631 39.7965C135.581 39.7364 135.532 39.6758 135.483 39.6147C135.435 39.5534 135.387 39.4915 135.34 39.4292C135.293 39.3668 135.247 39.304 135.202 39.2406C135.156 39.177 135.112 39.1129 135.068 39.0483C135.024 38.9837 134.981 38.9185 134.939 38.8526C134.897 38.787 134.855 38.7207 134.815 38.6539C134.774 38.5872 134.734 38.52 134.695 38.4521C134.657 38.3845 134.619 38.3164 134.581 38.2477C134.544 38.1791 134.508 38.1099 134.472 38.0403C134.437 37.9707 134.402 37.9007 134.368 37.8303C134.335 37.7596 134.302 37.6887 134.269 37.6175C134.238 37.5463 134.207 37.4746 134.176 37.4026C134.146 37.3305 134.117 37.258 134.088 37.1853C134.06 37.1125 134.032 37.0393 134.006 36.9659C133.979 36.8924 133.953 36.8186 133.928 36.7445C133.904 36.6704 133.88 36.596 133.857 36.5213C133.834 36.4465 133.812 36.3716 133.791 36.2963C132.802 32.8601 132.966 29.0394 134.719 25.876C135.942 23.6692 137.945 22.1678 140.362 21.4831C143.316 20.6463 146.679 20.789 149.39 22.311C150.655 23.0208 151.63 23.9496 152.466 25.1309C152.718 25.4861 152.984 25.8786 153.156 26.2791C153.428 26.9142 153.535 27.5384 153.719 28.1948C153.815 28.2372 153.854 28.2049 153.951 28.1751C154.036 28.3699 154.043 31.6695 153.962 31.8566C153.951 31.8802 153.947 31.8865 153.935 31.9067ZM143.914 30.4318L146.763 30.4357C147.203 30.4378 147.653 30.4734 148.092 30.4497C148.21 30.4434 148.449 30.4411 148.538 30.3603C148.63 30.2767 148.63 30.0641 148.627 29.9458C148.593 28.6953 147.86 26.9346 146.951 26.0809C146.038 25.2238 144.762 24.8635 143.53 24.9073C142.298 25.0189 141.192 25.4592 140.38 26.4312C139.67 27.2819 139.336 28.2286 139.06 29.288C138.985 29.5764 138.868 29.93 138.903 30.228C138.912 30.2981 138.93 30.3344 138.976 30.3864C139.426 30.5388 143.114 30.4394 143.914 30.4318Z" fill="black"/>
</g>
<defs>
<clipPath id="clip0_8185_8242">
<rect width="154" height="56" fill="white"/>
</clipPath>
</defs>
</svg>
