<svg width="38" height="38" viewBox="0 0 38 38" fill="none" xmlns="http://www.w3.org/2000/svg">
<g clip-path="url(#clip0_8390_5878)">
<rect x="0.5" y="0.25" width="37.5" height="37.5" rx="18.75" fill="#FF7700"/>
<g filter="url(#filter0_d_8390_5878)">
<path d="M21.4751 9.69505L21.1156 22.9155H17.7413L17.3725 9.69505H21.4751ZM19.4284 28.8159C18.82 28.8159 18.2975 28.6008 17.8612 28.1705C17.4248 27.7341 17.2097 27.2117 17.2158 26.6032C17.2097 26.0009 17.4248 25.4846 17.8612 25.0544C18.2975 24.6242 18.82 24.409 19.4284 24.409C20.0123 24.409 20.5255 24.6242 20.9681 25.0544C21.4106 25.4846 21.6349 26.0009 21.6411 26.6032C21.6349 27.0089 21.5274 27.3807 21.3184 27.7188C21.1156 28.0507 20.8482 28.318 20.5163 28.5209C20.1844 28.7175 19.8218 28.8159 19.4284 28.8159Z" fill="white"/>
</g>
</g>
<defs>
<filter id="filter0_d_8390_5878" x="11.4378" y="9.69531" width="15.9721" height="30.6586" filterUnits="userSpaceOnUse" color-interpolation-filters="sRGB">
<feFlood flood-opacity="0" result="BackgroundImageFix"/>
<feColorMatrix in="SourceAlpha" type="matrix" values="0 0 0 0 0 0 0 0 0 0 0 0 0 0 0 0 0 0 127 0" result="hardAlpha"/>
<feOffset dy="5.76923"/>
<feGaussianBlur stdDeviation="2.88462"/>
<feComposite in2="hardAlpha" operator="out"/>
<feColorMatrix type="matrix" values="0 0 0 0 0 0 0 0 0 0 0 0 0 0 0 0 0 0 0.25 0"/>
<feBlend mode="normal" in2="BackgroundImageFix" result="effect1_dropShadow_8390_5878"/>
<feBlend mode="normal" in="SourceGraphic" in2="effect1_dropShadow_8390_5878" result="shape"/>
</filter>
<clipPath id="clip0_8390_5878">
<rect x="0.5" y="0.25" width="37.5" height="37.5" rx="18.75" fill="white"/>
</clipPath>
</defs>
</svg>
