<svg width="37" height="30" viewBox="0 0 37 30" fill="none" xmlns="http://www.w3.org/2000/svg">
<path d="M16.9023 29.9961C15.2487 29.9831 13.4779 29.8789 11.5898 29.6836C9.70182 29.5013 7.78776 29.2214 5.84766 28.8438C3.90755 28.4531 2.03255 27.9583 0.222656 27.3594C0.535156 26.0573 0.847656 24.8333 1.16016 23.6875C1.47266 22.5286 1.79167 21.3112 2.11719 20.0352C2.11719 19.944 2.16927 19.8984 2.27344 19.8984C4.17448 20.3672 5.93229 20.7839 7.54688 21.1484C9.16146 21.5 10.8216 21.7799 12.5273 21.9883C14.2331 22.1836 16.1602 22.2812 18.3086 22.2812C18.7513 22.2812 19.207 22.2552 19.6758 22.2031C20.1576 22.151 20.5677 22.0469 20.9062 21.8906C21.2448 21.7344 21.4141 21.5065 21.4141 21.207C21.4141 20.7513 21.2383 20.4779 20.8867 20.3867C20.5352 20.2956 20.2552 20.237 20.0469 20.2109C18.0026 19.8854 16.0104 19.5664 14.0703 19.2539C12.1302 18.9414 10.3203 18.5703 8.64062 18.1406C6.97396 17.6979 5.5026 17.1315 4.22656 16.4414C2.96354 15.7513 1.97396 14.8659 1.25781 13.7852C0.554688 12.7044 0.203125 11.3633 0.203125 9.76172C0.203125 8.05599 0.60026 6.63672 1.39453 5.50391C2.1888 4.37109 3.26953 3.46615 4.63672 2.78906C6.01693 2.09896 7.58594 1.58464 9.34375 1.24609C11.1016 0.894531 12.944 0.666667 14.8711 0.5625C16.8112 0.445312 18.7253 0.386719 20.6133 0.386719C21.7461 0.386719 22.9701 0.464844 24.2852 0.621094C25.6003 0.777344 26.9023 0.985677 28.1914 1.24609C29.4805 1.50651 30.6523 1.79297 31.707 2.10547C32.7747 2.41797 33.6211 2.72396 34.2461 3.02344C33.8034 4.67708 33.4323 6.0638 33.1328 7.18359C32.8464 8.29036 32.5143 9.26042 32.1367 10.0938C30.3398 9.59896 28.5755 9.18229 26.8438 8.84375C25.125 8.50521 23.543 8.2513 22.0977 8.08203C20.6654 7.89974 19.474 7.80859 18.5234 7.80859C18.0417 7.80859 17.4753 7.83464 16.8242 7.88672C16.1732 7.92578 15.6003 8.03646 15.1055 8.21875C14.6237 8.38802 14.3828 8.68099 14.3828 9.09766C14.3828 9.48828 14.7083 9.76172 15.3594 9.91797C16.0234 10.0612 16.9674 10.237 18.1914 10.4453C19.832 10.7188 21.5052 10.9987 23.2109 11.2852C24.9297 11.5586 26.5768 11.8971 28.1523 12.3008C29.7279 12.7044 31.1341 13.2318 32.3711 13.8828C33.6211 14.5339 34.6107 15.3672 35.3398 16.3828C36.069 17.3854 36.4336 18.6354 36.4336 20.1328C36.4336 22.0078 35.9518 23.5833 34.9883 24.8594C34.0378 26.1224 32.6901 27.1315 30.9453 27.8867C29.2005 28.6419 27.1367 29.1823 24.7539 29.5078C22.3711 29.8333 19.7539 29.9961 16.9023 29.9961Z" fill="white"/>
</svg>
