<svg width="265" height="334" viewBox="0 0 265 334" fill="none" xmlns="http://www.w3.org/2000/svg">
<path d="M92.7893 334C75.9978 334 61.6939 333.103 49.8777 330.862C38.0614 329.068 28.4218 324.137 20.9589 316.067C13.496 308.894 7.89885 298.583 4.78931 285.133C1.67977 271.683 0.125 254.647 0.125 234.024C0.125 230.438 0.125 226.851 0.125 223.264C0.125 219.678 0.435953 216.091 0.746907 212.056H64.4925C64.1815 214.298 64.1815 216.54 64.1815 218.333V223.264C64.1815 230.886 64.4925 237.162 65.7363 241.646C66.6692 246.129 68.5349 249.715 71.0225 252.405C73.5102 255.095 76.6197 256.889 80.6621 257.785C84.7045 258.682 89.6798 259.13 95.8988 259.13H177.369C184.832 259.13 190.118 257.337 193.538 253.302C196.959 249.267 198.825 242.542 198.825 233.576C198.825 222.816 196.648 215.195 192.606 210.711C188.252 206.228 181.722 203.987 172.394 203.987H104.606V129.565H174.881C186.697 129.565 192.917 121.047 192.917 103.562C192.917 92.8027 190.74 85.1812 186.386 81.1463C182.033 77.1114 174.881 74.8698 164.931 74.8698H92.1674C82.5278 74.8698 75.9978 77.5597 72.2663 82.043C68.5349 86.9745 66.6692 96.3893 66.6692 110.287V114.322H2.92359C2.61263 110.736 2.30168 107.149 2.30168 103.562C2.30168 99.9759 2.30168 96.8376 2.30168 93.251C2.30168 76.2148 3.85645 61.8685 7.27694 49.7638C10.3865 38.1074 15.6727 28.2443 22.5137 21.0712C29.3547 13.898 38.0614 8.51814 48.6338 4.93156C59.2063 1.79329 71.9554 0 86.8812 0H180.478C194.471 0 206.288 1.34498 216.238 3.58658C226.189 6.27651 234.273 9.86309 240.492 15.243C246.712 20.6228 251.065 27.796 253.863 36.3141C256.662 45.2805 258.217 56.0403 258.217 68.5933V106.701C258.217 116.564 257.595 124.634 256.662 130.91C255.418 137.635 253.553 143.463 251.065 147.946C248.266 152.43 244.535 156.464 240.182 159.154C235.517 161.844 229.609 164.086 222.768 165.879C230.231 167.672 236.45 169.466 241.736 172.156C247.023 174.846 251.376 178.432 254.485 182.467C257.595 186.95 260.083 191.882 261.637 198.158C263.192 204.435 264.125 211.608 264.125 219.678V260.475C264.125 286.03 257.906 304.859 245.779 316.515C233.341 328.172 214.683 334 189.185 334H92.7893Z" fill="white" fill-opacity="0.01"/>
</svg>
