<svg width="308" height="334" viewBox="0 0 308 334" fill="none" xmlns="http://www.w3.org/2000/svg">
<path d="M0.489609 217.826C0.489609 200.128 5.95873 185.152 17.2616 172.899C28.5644 160.647 44.6072 153.386 65.0252 151.117L189.721 138.41C202.847 137.049 212.327 134.78 218.525 131.603C224.724 128.427 228.005 122.527 228.005 113.905V97.1141C228.005 82.5924 215.973 75.3315 191.909 75.3315H122.633C105.861 75.3315 94.1939 78.5082 86.9017 84.8614C79.6096 91.2147 76.3281 102.56 76.3281 119.351V124.796H0.854218C0.489609 120.712 0.125 116.628 0.125 112.997C0.125 109.367 0.125 105.283 0.125 101.652C0.125 81.6848 1.94804 65.3478 5.59412 52.1875C9.2402 39.0272 15.4385 28.5897 23.8245 20.875C32.2105 13.1603 43.1488 7.71468 56.6393 4.53807C70.1298 1.81522 86.5371 0 105.861 0H213.421C244.777 0 268.112 6.35326 282.696 19.0598C297.281 31.7663 304.573 51.7337 304.573 78.962V133.418C304.573 154.293 299.104 171.538 288.165 184.698C277.227 197.859 261.549 205.573 241.131 207.842L99.2984 222.818C90.5478 223.726 84.7141 227.356 81.068 232.802C77.4219 238.247 75.5989 246.416 75.5989 257.307V259.122H307.125V334H0.489609V217.826Z" fill="white" fill-opacity="0.01"/>
</svg>
