<svg width="1945" height="162" viewBox="0 0 1945 162" fill="none" xmlns="http://www.w3.org/2000/svg">
<mask id="path-1-outside-1_10027_5405" maskUnits="userSpaceOnUse" x="0" y="0" width="1945" height="162" fill="black">
<rect fill="white" width="1945" height="162"/>
<path d="M1.62394 3.32399H106.528C114.424 3.32399 121.38 3.7 127.396 4.452C133.224 5.204 138.3 6.70799 142.812 8.96399C150.144 12.912 155.22 18.552 158.228 25.884C161.048 33.216 162.552 42.804 162.552 54.648C162.552 63.86 161.8 71.756 160.296 78.148C158.792 84.728 156.536 89.992 153.34 94.128C150.144 98.264 146.008 101.272 140.744 103.152C135.48 105.032 129.088 105.972 121.568 105.972H43.5479V140H1.62394V3.32399ZM105.024 71.944C110.852 71.944 114.8 70.628 116.868 67.808C118.936 64.988 120.064 60.1 120.064 53.332C120.064 47.88 118.748 43.932 116.492 41.3C114.236 38.668 110.288 37.352 105.024 37.352H43.5479V71.944H105.024ZM174.887 3.32399H324.159V36.6H216.623V57.28H317.955V86.044H216.623V106.912H325.851V140H174.887V3.32399ZM340.644 3.32399H473.372V36.6H382.38V140H340.644V3.32399ZM482.525 3.32399H524.261V103.528L605.665 3.32399H667.329V140H625.593V40.548L543.625 140H482.525V3.32399ZM749.45 141.692C743.998 141.692 738.922 141.692 734.41 141.504C729.71 141.316 725.386 140.94 721.438 140.188C717.302 139.436 713.73 138.496 710.346 136.992C706.962 135.676 703.766 133.796 700.758 131.54C694.93 127.028 690.794 121.576 688.538 115.184C686.094 108.792 684.966 100.896 684.966 91.496V54.272C684.966 44.12 686.094 35.472 688.35 28.704C690.606 21.936 694.366 16.672 699.63 12.536C704.894 8.58799 711.474 5.76799 719.746 4.07599C727.83 2.572 737.794 1.63199 749.45 1.63199H796.074C808.106 1.63199 818.07 2.19599 826.342 3.13599C834.426 4.26399 841.006 6.70799 846.082 10.468C850.406 13.852 853.602 18.364 855.67 24.004C857.55 29.644 858.678 36.6 858.678 44.872V48.632C858.678 49.948 858.49 51.264 858.49 52.58H816.566V51.264C816.566 45.812 814.686 41.864 811.114 39.42C807.542 37.164 802.09 35.848 794.57 35.848H761.106C754.338 35.848 748.698 36.224 744.374 36.788C740.05 37.54 736.666 38.668 734.034 40.548C731.402 42.428 729.71 45.248 728.77 48.82C727.83 52.392 727.454 57.092 727.454 62.732V81.72C727.454 87.172 728.018 91.496 729.146 94.88C730.274 98.264 732.342 100.708 734.974 102.588C737.606 104.468 741.178 105.784 745.502 106.536C749.638 107.288 754.902 107.476 761.106 107.476H785.358C790.998 107.476 795.886 107.288 800.022 106.912C804.158 106.536 807.542 105.596 810.174 104.28C812.806 102.964 814.686 101.084 815.814 98.64C816.942 96.196 817.694 92.812 817.694 88.676V87.172H859.994C859.994 89.052 860.182 90.744 860.182 92.248C860.182 93.94 860.37 95.632 860.37 97.136C860.37 105.784 859.242 112.928 857.174 118.568C854.918 124.208 851.534 128.908 846.646 132.48C841.382 136.428 834.614 138.872 826.342 140C818.07 141.128 808.106 141.692 796.074 141.692H749.45ZM921.621 36.788H864.469V3.32399H1020.51V36.788H963.357V140H921.621V36.788ZM1029.9 3.32399H1134.8C1142.7 3.32399 1149.65 3.7 1155.67 4.452C1161.5 5.204 1166.57 6.70799 1171.08 8.96399C1178.42 12.912 1183.49 18.552 1186.5 25.884C1189.32 33.216 1190.82 42.804 1190.82 54.648C1190.82 63.86 1190.07 71.756 1188.57 78.148C1187.06 84.728 1184.81 89.992 1181.61 94.128C1178.42 98.264 1174.28 101.272 1169.02 103.152C1163.75 105.032 1157.36 105.972 1149.84 105.972H1071.82V140H1029.9V3.32399ZM1133.3 71.944C1139.12 71.944 1143.07 70.628 1145.14 67.808C1147.21 64.988 1148.34 60.1 1148.34 53.332C1148.34 47.88 1147.02 43.932 1144.76 41.3C1142.51 38.668 1138.56 37.352 1133.3 37.352H1071.82V71.944H1133.3ZM1253.98 3.32399H1307.19L1380.51 140H1334.63L1321.47 117.252H1238.19L1224.84 140H1179.35L1253.98 3.32399ZM1306.43 84.352L1279.93 36.036L1253.98 84.352H1306.43ZM1532.46 140H1385.26V3.32399H1426.99V106.912H1512.72V3.32399H1554.46V106.912H1571.38V160.68H1532.46V140ZM1575.97 3.32399H1617.71V103.528L1699.11 3.32399H1760.78V140H1719.04V40.548L1637.07 140H1575.97V3.32399ZM1778.79 111.988C1778.79 98.076 1785.93 89.428 1800.41 86.044C1791.76 84.164 1785.93 80.028 1782.55 74.012C1779.17 67.996 1777.66 59.348 1777.66 48.068C1777.66 39.232 1778.6 31.9 1780.48 26.072C1782.36 20.432 1785.56 15.732 1790.07 12.348C1794.58 8.96399 1800.22 6.70799 1807.37 5.392C1814.51 4.07599 1823.16 3.32399 1833.69 3.32399H1943.48V140H1901.55V105.032H1839.33C1835.94 105.032 1832.93 105.22 1830.68 105.596C1828.23 105.972 1826.35 106.724 1824.85 107.852C1823.35 108.98 1822.22 110.296 1821.47 112.176C1820.71 114.056 1820.53 116.312 1820.53 119.132V140H1778.79V111.988ZM1901.55 70.816V37.352H1835.19C1829.74 37.352 1825.79 38.668 1823.53 41.112C1821.28 43.744 1820.15 47.504 1820.15 52.768C1820.15 59.348 1821.09 64.048 1823.16 66.68C1825.23 69.5 1829.17 70.816 1835.19 70.816H1901.55Z"/>
</mask>
<path d="M1.62394 3.32399V2.32399H0.623938V3.32399H1.62394ZM127.396 4.452L127.524 3.46021L127.52 3.45972L127.396 4.452ZM142.812 8.96399L143.286 8.08352L143.273 8.07634L143.259 8.06957L142.812 8.96399ZM158.228 25.884L159.161 25.525L159.157 25.5147L159.153 25.5044L158.228 25.884ZM160.296 78.148L159.323 77.919L159.321 77.9252L160.296 78.148ZM153.34 94.128L152.549 93.5165L152.549 93.5166L153.34 94.128ZM43.5479 105.972V104.972H42.5479V105.972H43.5479ZM43.5479 140V141H44.5479V140H43.5479ZM1.62394 140H0.623938V141H1.62394V140ZM116.868 67.808L116.062 67.2166L116.062 67.2166L116.868 67.808ZM43.5479 37.352V36.352H42.5479V37.352H43.5479ZM43.5479 71.944H42.5479V72.944H43.5479V71.944ZM1.62394 4.32399H106.528V2.32399H1.62394V4.32399ZM106.528 4.32399C114.394 4.32399 121.307 4.69868 127.272 5.44427L127.52 3.45972C121.453 2.70131 114.454 2.32399 106.528 2.32399V4.32399ZM127.268 5.44377C132.999 6.1833 137.965 7.65864 142.365 9.85842L143.259 8.06957C138.635 5.75734 133.449 4.2247 127.524 3.46022L127.268 5.44377ZM142.338 9.84447C149.471 13.6856 154.385 19.1513 157.303 26.2635L159.153 25.5044C156.055 17.9527 150.816 12.1383 143.286 8.08352L142.338 9.84447ZM157.295 26.243C160.056 33.4226 161.552 42.8784 161.552 54.648H163.552C163.552 42.7296 162.04 33.0094 159.161 25.525L157.295 26.243ZM161.552 54.648C161.552 63.8121 160.803 71.6259 159.323 77.919L161.269 78.377C162.797 71.8861 163.552 63.9079 163.552 54.648H161.552ZM159.321 77.9252C157.839 84.4098 155.631 89.5274 152.549 93.5165L154.131 94.7394C157.441 90.4566 159.745 85.0462 161.271 78.3708L159.321 77.9252ZM152.549 93.5166C149.473 97.4963 145.497 100.392 140.408 102.21L141.08 104.094C146.518 102.152 150.814 99.0317 154.131 94.7394L152.549 93.5166ZM140.408 102.21C135.282 104.041 129.01 104.972 121.568 104.972V106.972C129.166 106.972 135.678 106.023 141.08 104.094L140.408 102.21ZM121.568 104.972H43.5479V106.972H121.568V104.972ZM42.5479 105.972V140H44.5479V105.972H42.5479ZM43.5479 139H1.62394V141H43.5479V139ZM2.62394 140V3.32399H0.623938V140H2.62394ZM105.024 72.944C110.939 72.944 115.314 71.6182 117.674 68.3994L116.062 67.2166C114.286 69.6378 110.764 70.944 105.024 70.944V72.944ZM117.674 68.3994C119.936 65.3148 121.064 60.1573 121.064 53.332H119.064C119.064 60.0427 117.936 64.6612 116.062 67.2166L117.674 68.3994ZM121.064 53.332C121.064 47.7293 119.712 43.5196 117.251 40.6492L115.733 41.9508C117.784 44.3444 119.064 48.0307 119.064 53.332H121.064ZM117.251 40.6492C114.719 37.6947 110.414 36.352 105.024 36.352V38.352C110.162 38.352 113.753 39.6413 115.733 41.9508L117.251 40.6492ZM105.024 36.352H43.5479V38.352H105.024V36.352ZM42.5479 37.352V71.944H44.5479V37.352H42.5479ZM43.5479 72.944H105.024V70.944H43.5479V72.944ZM174.887 3.32399V2.32399H173.887V3.32399H174.887ZM324.159 3.32399H325.159V2.32399H324.159V3.32399ZM324.159 36.6V37.6H325.159V36.6H324.159ZM216.623 36.6V35.6H215.623V36.6H216.623ZM216.623 57.28H215.623V58.28H216.623V57.28ZM317.955 57.28H318.955V56.28H317.955V57.28ZM317.955 86.044V87.044H318.955V86.044H317.955ZM216.623 86.044V85.044H215.623V86.044H216.623ZM216.623 106.912H215.623V107.912H216.623V106.912ZM325.851 106.912H326.851V105.912H325.851V106.912ZM325.851 140V141H326.851V140H325.851ZM174.887 140H173.887V141H174.887V140ZM174.887 4.32399H324.159V2.32399H174.887V4.32399ZM323.159 3.32399V36.6H325.159V3.32399H323.159ZM324.159 35.6H216.623V37.6H324.159V35.6ZM215.623 36.6V57.28H217.623V36.6H215.623ZM216.623 58.28H317.955V56.28H216.623V58.28ZM316.955 57.28V86.044H318.955V57.28H316.955ZM317.955 85.044H216.623V87.044H317.955V85.044ZM215.623 86.044V106.912H217.623V86.044H215.623ZM216.623 107.912H325.851V105.912H216.623V107.912ZM324.851 106.912V140H326.851V106.912H324.851ZM325.851 139H174.887V141H325.851V139ZM175.887 140V3.32399H173.887V140H175.887ZM340.644 3.32399V2.32399H339.644V3.32399H340.644ZM473.372 3.32399H474.372V2.32399H473.372V3.32399ZM473.372 36.6V37.6H474.372V36.6H473.372ZM382.38 36.6V35.6H381.38V36.6H382.38ZM382.38 140V141H383.38V140H382.38ZM340.644 140H339.644V141H340.644V140ZM340.644 4.32399H473.372V2.32399H340.644V4.32399ZM472.372 3.32399V36.6H474.372V3.32399H472.372ZM473.372 35.6H382.38V37.6H473.372V35.6ZM381.38 36.6V140H383.38V36.6H381.38ZM382.38 139H340.644V141H382.38V139ZM341.644 140V3.32399H339.644V140H341.644ZM482.525 3.32399V2.32399H481.525V3.32399H482.525ZM524.261 3.32399H525.261V2.32399H524.261V3.32399ZM524.261 103.528H523.261V106.345L525.037 104.159L524.261 103.528ZM605.665 3.32399V2.32399H605.189L604.889 2.69345L605.665 3.32399ZM667.329 3.32399H668.329V2.32399H667.329V3.32399ZM667.329 140V141H668.329V140H667.329ZM625.593 140H624.593V141H625.593V140ZM625.593 40.548H626.593V37.7624L624.821 39.912L625.593 40.548ZM543.625 140V141H544.097L544.397 140.636L543.625 140ZM482.525 140H481.525V141H482.525V140ZM482.525 4.32399H524.261V2.32399H482.525V4.32399ZM523.261 3.32399V103.528H525.261V3.32399H523.261ZM525.037 104.159L606.441 3.95453L604.889 2.69345L523.485 102.897L525.037 104.159ZM605.665 4.32399H667.329V2.32399H605.665V4.32399ZM666.329 3.32399V140H668.329V3.32399H666.329ZM667.329 139H625.593V141H667.329V139ZM626.593 140V40.548H624.593V140H626.593ZM624.821 39.912L542.853 139.364L544.397 140.636L626.365 41.184L624.821 39.912ZM543.625 139H482.525V141H543.625V139ZM483.525 140V3.32399H481.525V140H483.525ZM734.41 141.504L734.451 140.505L734.45 140.505L734.41 141.504ZM721.438 140.188L721.625 139.206L721.617 139.204L721.438 140.188ZM710.346 136.992L710.752 136.078L710.73 136.069L710.708 136.06L710.346 136.992ZM700.758 131.54L700.146 132.331L700.152 132.335L700.158 132.34L700.758 131.54ZM688.538 115.184L689.481 114.851L689.476 114.839L689.472 114.827L688.538 115.184ZM688.35 28.704L689.298 29.0202L689.298 29.0202L688.35 28.704ZM699.63 12.536L699.03 11.736L699.021 11.7427L699.012 11.7497L699.63 12.536ZM719.746 4.07599L719.563 3.09286L719.554 3.09449L719.545 3.09628L719.746 4.07599ZM826.342 3.13599L826.48 2.14559L826.467 2.14383L826.455 2.14239L826.342 3.13599ZM846.082 10.468L846.698 9.68049L846.688 9.67233L846.677 9.66444L846.082 10.468ZM855.67 24.004L856.618 23.6878L856.614 23.6737L856.609 23.6597L855.67 24.004ZM858.49 52.58V53.58H859.49V52.58H858.49ZM816.566 52.58H815.566V53.58H816.566V52.58ZM811.114 39.42L811.678 38.5947L811.663 38.5843L811.648 38.5745L811.114 39.42ZM744.374 36.788L744.244 35.7964L744.223 35.7991L744.202 35.8028L744.374 36.788ZM729.146 94.88L730.094 94.5638L730.094 94.5638L729.146 94.88ZM734.974 102.588L735.555 101.774L735.555 101.774L734.974 102.588ZM745.502 106.536L745.681 105.552L745.673 105.551L745.502 106.536ZM800.022 106.912L799.931 105.916L799.931 105.916L800.022 106.912ZM817.694 87.172V86.172H816.694V87.172H817.694ZM859.994 87.172H860.994V86.172H859.994V87.172ZM857.174 118.568L858.102 118.939L858.108 118.926L858.113 118.912L857.174 118.568ZM846.646 132.48L846.056 131.673L846.046 131.68L846.646 132.48ZM749.45 140.692C743.992 140.692 738.938 140.692 734.451 140.505L734.368 142.503C738.905 142.692 744.003 142.692 749.45 142.692V140.692ZM734.45 140.505C729.775 140.318 725.505 139.945 721.625 139.206L721.251 141.17C725.267 141.935 729.645 142.314 734.37 142.503L734.45 140.505ZM721.617 139.204C717.524 138.46 714.037 137.538 710.752 136.078L709.94 137.906C713.423 139.454 717.08 140.412 721.259 141.172L721.617 139.204ZM710.708 136.06C707.425 134.783 704.308 132.953 701.358 130.74L700.158 132.34C703.223 134.639 706.498 136.569 709.983 137.924L710.708 136.06ZM701.37 130.749C695.674 126.339 691.665 121.039 689.481 114.851L687.595 115.517C689.923 122.113 694.186 127.717 700.146 132.331L701.37 130.749ZM689.472 114.827C687.087 108.589 685.966 100.826 685.966 91.496H683.966C683.966 100.966 685.101 108.995 687.604 115.541L689.472 114.827ZM685.966 91.496V54.272H683.966V91.496H685.966ZM685.966 54.272C685.966 44.1836 687.088 35.6516 689.298 29.0202L687.401 28.3878C685.1 35.2924 683.966 44.0564 683.966 54.272H685.966ZM689.298 29.0202C691.493 22.4361 695.139 17.3362 700.248 13.3223L699.012 11.7497C693.593 16.0078 689.718 21.4359 687.401 28.3878L689.298 29.0202ZM700.23 13.336C705.352 9.49448 711.787 6.72465 719.946 5.05571L719.545 3.09628C711.161 4.81133 704.436 7.6815 699.03 11.736L700.23 13.336ZM719.929 5.05912C727.944 3.56797 737.846 2.63199 749.45 2.63199V0.631989C737.742 0.631989 727.716 1.57603 719.563 3.09286L719.929 5.05912ZM749.45 2.63199H796.074V0.631989H749.45V2.63199ZM796.074 2.63199C808.075 2.63199 818.001 3.19461 826.229 4.1296L826.455 2.14239C818.139 1.19738 808.136 0.631989 796.074 0.631989V2.63199ZM826.204 4.1264C834.169 5.23785 840.578 7.63594 845.487 11.2716L846.677 9.66444C841.433 5.78004 834.683 3.29012 826.48 2.14559L826.204 4.1264ZM845.465 11.2555C849.629 14.514 852.721 18.8661 854.731 24.3482L856.609 23.6597C854.483 17.8619 851.182 13.19 846.698 9.68049L845.465 11.2555ZM854.721 24.3202C856.562 29.8419 857.678 36.6888 857.678 44.872H859.678C859.678 36.5112 858.538 29.4461 856.618 23.6878L854.721 24.3202ZM857.678 44.872V48.632H859.678V44.872H857.678ZM857.678 48.632C857.678 49.2484 857.634 49.8707 857.586 50.5347C857.54 51.1867 857.49 51.8804 857.49 52.58H859.49C859.49 51.9636 859.534 51.3413 859.581 50.6772C859.628 50.0253 859.678 49.3316 859.678 48.632H857.678ZM858.49 51.58H816.566V53.58H858.49V51.58ZM817.566 52.58V51.264H815.566V52.58H817.566ZM817.566 51.264C817.566 45.562 815.583 41.2662 811.678 38.5947L810.549 40.2453C813.789 42.4618 815.566 46.062 815.566 51.264H817.566ZM811.648 38.5745C807.85 36.176 802.182 34.848 794.57 34.848V36.848C801.998 36.848 807.233 38.152 810.58 40.2655L811.648 38.5745ZM794.57 34.848H761.106V36.848H794.57V34.848ZM761.106 34.848C754.303 34.848 748.619 35.2258 744.244 35.7964L744.503 37.7796C748.777 37.2222 754.373 36.848 761.106 36.848V34.848ZM744.202 35.8028C739.812 36.5663 736.26 37.7292 733.453 39.7343L734.615 41.3617C737.072 39.6068 740.287 38.5137 744.545 37.7732L744.202 35.8028ZM733.453 39.7343C730.583 41.7838 728.785 44.8315 727.803 48.5655L729.737 49.0745C730.634 45.6645 732.22 43.0722 734.615 41.3617L733.453 39.7343ZM727.803 48.5655C726.83 52.2627 726.454 57.0647 726.454 62.732H728.454C728.454 57.1193 728.83 52.5213 729.737 49.0745L727.803 48.5655ZM726.454 62.732V81.72H728.454V62.732H726.454ZM726.454 81.72C726.454 87.2311 727.023 91.6727 728.197 95.1962L730.094 94.5638C729.013 91.3193 728.454 87.1129 728.454 81.72H726.454ZM728.197 95.1962C729.403 98.8126 731.618 101.42 734.393 103.402L735.555 101.774C733.066 99.996 731.145 97.7154 730.094 94.5638L728.197 95.1962ZM734.393 103.402C737.186 105.397 740.916 106.753 745.33 107.521L745.673 105.551C741.44 104.815 738.025 103.539 735.555 101.774L734.393 103.402ZM745.323 107.52C749.556 108.289 754.899 108.476 761.106 108.476V106.476C754.904 106.476 749.72 106.287 745.681 105.552L745.323 107.52ZM761.106 108.476H785.358V106.476H761.106V108.476ZM785.358 108.476C791.018 108.476 795.938 108.287 800.112 107.908L799.931 105.916C795.834 106.289 790.977 106.476 785.358 106.476V108.476ZM800.112 107.908C804.345 107.523 807.855 106.557 810.621 105.174L809.727 103.386C807.228 104.635 803.97 105.549 799.931 105.916L800.112 107.908ZM810.621 105.174C813.436 103.767 815.49 101.729 816.722 99.0591L814.906 98.2209C813.882 100.439 812.176 102.161 809.727 103.386L810.621 105.174ZM816.722 99.0591C817.922 96.4583 818.694 92.9259 818.694 88.676H816.694C816.694 92.6981 815.961 95.9337 814.906 98.2209L816.722 99.0591ZM818.694 88.676V87.172H816.694V88.676H818.694ZM817.694 88.172H859.994V86.172H817.694V88.172ZM858.994 87.172C858.994 88.1428 859.042 89.0609 859.089 89.9065C859.137 90.7622 859.182 91.5299 859.182 92.248H861.182C861.182 91.4621 861.133 90.6318 861.086 89.7955C861.039 88.9491 860.994 88.0812 860.994 87.172H858.994ZM859.182 92.248C859.182 93.1267 859.231 94.0001 859.277 94.8196C859.325 95.6501 859.37 96.4183 859.37 97.136H861.37C861.37 96.3497 861.321 95.5199 861.274 94.7054C861.227 93.8799 861.182 93.0613 861.182 92.248H859.182ZM859.37 97.136C859.37 105.704 858.251 112.724 856.235 118.224L858.113 118.912C860.232 113.132 861.37 105.864 861.37 97.136H859.37ZM856.245 118.197C854.049 123.687 850.773 128.226 846.056 131.673L847.236 133.287C852.295 129.59 855.786 124.729 858.102 118.939L856.245 118.197ZM846.046 131.68C840.956 135.498 834.364 137.897 826.207 139.009L826.477 140.991C834.864 139.847 841.808 137.358 847.246 133.28L846.046 131.68ZM826.207 139.009C817.994 140.129 808.078 140.692 796.074 140.692V142.692C808.134 142.692 818.146 142.127 826.477 140.991L826.207 139.009ZM796.074 140.692H749.45V142.692H796.074V140.692ZM921.621 36.788H922.621V35.788H921.621V36.788ZM864.469 36.788H863.469V37.788H864.469V36.788ZM864.469 3.32399V2.32399H863.469V3.32399H864.469ZM1020.51 3.32399H1021.51V2.32399H1020.51V3.32399ZM1020.51 36.788V37.788H1021.51V36.788H1020.51ZM963.357 36.788V35.788H962.357V36.788H963.357ZM963.357 140V141H964.357V140H963.357ZM921.621 140H920.621V141H921.621V140ZM921.621 35.788H864.469V37.788H921.621V35.788ZM865.469 36.788V3.32399H863.469V36.788H865.469ZM864.469 4.32399H1020.51V2.32399H864.469V4.32399ZM1019.51 3.32399V36.788H1021.51V3.32399H1019.51ZM1020.51 35.788H963.357V37.788H1020.51V35.788ZM962.357 36.788V140H964.357V36.788H962.357ZM963.357 139H921.621V141H963.357V139ZM922.621 140V36.788H920.621V140H922.621ZM1029.9 3.32399V2.32399H1028.9V3.32399H1029.9ZM1155.67 4.452L1155.8 3.46021L1155.79 3.45972L1155.67 4.452ZM1171.08 8.96399L1171.56 8.08352L1171.54 8.07634L1171.53 8.06957L1171.08 8.96399ZM1186.5 25.884L1187.43 25.525L1187.43 25.5147L1187.42 25.5044L1186.5 25.884ZM1188.57 78.148L1187.59 77.919L1187.59 77.9252L1188.57 78.148ZM1181.61 94.128L1180.82 93.5165L1180.82 93.5166L1181.61 94.128ZM1071.82 105.972V104.972H1070.82V105.972H1071.82ZM1071.82 140V141H1072.82V140H1071.82ZM1029.9 140H1028.9V141H1029.9V140ZM1145.14 67.808L1144.33 67.2166L1144.33 67.2166L1145.14 67.808ZM1071.82 37.352V36.352H1070.82V37.352H1071.82ZM1071.82 71.944H1070.82V72.944H1071.82V71.944ZM1029.9 4.32399H1134.8V2.32399H1029.9V4.32399ZM1134.8 4.32399C1142.67 4.32399 1149.58 4.69868 1155.54 5.44427L1155.79 3.45972C1149.72 2.70131 1142.73 2.32399 1134.8 2.32399V4.32399ZM1155.54 5.44377C1161.27 6.1833 1166.24 7.65864 1170.64 9.85842L1171.53 8.06957C1166.91 5.75734 1161.72 4.2247 1155.8 3.46022L1155.54 5.44377ZM1170.61 9.84447C1177.74 13.6856 1182.66 19.1513 1185.57 26.2635L1187.42 25.5044C1184.33 17.9527 1179.09 12.1383 1171.56 8.08352L1170.61 9.84447ZM1185.57 26.243C1188.33 33.4226 1189.82 42.8784 1189.82 54.648H1191.82C1191.82 42.7296 1190.31 33.0094 1187.43 25.525L1185.57 26.243ZM1189.82 54.648C1189.82 63.8121 1189.08 71.6259 1187.59 77.919L1189.54 78.377C1191.07 71.8861 1191.82 63.9079 1191.82 54.648H1189.82ZM1187.59 77.9252C1186.11 84.4098 1183.9 89.5274 1180.82 93.5165L1182.4 94.7394C1185.71 90.4566 1188.02 85.0462 1189.54 78.3708L1187.59 77.9252ZM1180.82 93.5166C1177.75 97.4963 1173.77 100.392 1168.68 102.21L1169.35 104.094C1174.79 102.152 1179.09 99.0317 1182.4 94.7394L1180.82 93.5166ZM1168.68 102.21C1163.55 104.041 1157.28 104.972 1149.84 104.972V106.972C1157.44 106.972 1163.95 106.023 1169.35 104.094L1168.68 102.21ZM1149.84 104.972H1071.82V106.972H1149.84V104.972ZM1070.82 105.972V140H1072.82V105.972H1070.82ZM1071.82 139H1029.9V141H1071.82V139ZM1030.9 140V3.32399H1028.9V140H1030.9ZM1133.3 72.944C1139.21 72.944 1143.59 71.6182 1145.95 68.3994L1144.33 67.2166C1142.56 69.6378 1139.04 70.944 1133.3 70.944V72.944ZM1145.95 68.3994C1148.21 65.3148 1149.34 60.1573 1149.34 53.332H1147.34C1147.34 60.0427 1146.21 64.6612 1144.33 67.2166L1145.95 68.3994ZM1149.34 53.332C1149.34 47.7293 1147.98 43.5196 1145.52 40.6492L1144 41.9508C1146.06 44.3444 1147.34 48.0307 1147.34 53.332H1149.34ZM1145.52 40.6492C1142.99 37.6947 1138.69 36.352 1133.3 36.352V38.352C1138.43 38.352 1142.03 39.6413 1144 41.9508L1145.52 40.6492ZM1133.3 36.352H1071.82V38.352H1133.3V36.352ZM1070.82 37.352V71.944H1072.82V37.352H1070.82ZM1071.82 72.944H1133.3V70.944H1071.82V72.944ZM1253.98 3.32399V2.32399H1253.39L1253.1 2.84471L1253.98 3.32399ZM1307.19 3.32399L1308.07 2.85126L1307.78 2.32399H1307.19V3.32399ZM1380.51 140V141H1382.18L1381.39 139.527L1380.51 140ZM1334.63 140L1333.77 140.501L1334.06 141H1334.63V140ZM1321.47 117.252L1322.34 116.751L1322.05 116.252H1321.47V117.252ZM1238.19 117.252V116.252H1237.62L1237.33 116.746L1238.19 117.252ZM1224.84 140V141H1225.41L1225.7 140.506L1224.84 140ZM1179.35 140L1178.47 139.521L1177.66 141H1179.35V140ZM1306.43 84.352V85.352H1308.12L1307.31 83.871L1306.43 84.352ZM1279.93 36.036L1280.8 35.555L1279.92 33.9398L1279.04 35.5629L1279.93 36.036ZM1253.98 84.352L1253.1 83.8789L1252.31 85.352H1253.98V84.352ZM1253.98 4.32399H1307.19V2.32399H1253.98V4.32399ZM1306.3 3.79671L1379.62 140.473L1381.39 139.527L1308.07 2.85126L1306.3 3.79671ZM1380.51 139H1334.63V141H1380.51V139ZM1335.5 139.499L1322.34 116.751L1320.61 117.753L1333.77 140.501L1335.5 139.499ZM1321.47 116.252H1238.19V118.252H1321.47V116.252ZM1237.33 116.746L1223.98 139.494L1225.7 140.506L1239.05 117.758L1237.33 116.746ZM1224.84 139H1179.35V141H1224.84V139ZM1180.22 140.479L1254.86 3.80326L1253.1 2.84471L1178.47 139.521L1180.22 140.479ZM1307.31 83.871L1280.8 35.555L1279.05 36.517L1305.56 84.833L1307.31 83.871ZM1279.04 35.5629L1253.1 83.8789L1254.86 84.8251L1280.81 36.5091L1279.04 35.5629ZM1253.98 85.352H1306.43V83.352H1253.98V85.352ZM1532.46 140H1533.46V139H1532.46V140ZM1385.26 140H1384.26V141H1385.26V140ZM1385.26 3.32399V2.32399H1384.26V3.32399H1385.26ZM1426.99 3.32399H1427.99V2.32399H1426.99V3.32399ZM1426.99 106.912H1425.99V107.912H1426.99V106.912ZM1512.72 106.912V107.912H1513.72V106.912H1512.72ZM1512.72 3.32399V2.32399H1511.72V3.32399H1512.72ZM1554.46 3.32399H1555.46V2.32399H1554.46V3.32399ZM1554.46 106.912H1553.46V107.912H1554.46V106.912ZM1571.38 106.912H1572.38V105.912H1571.38V106.912ZM1571.38 160.68V161.68H1572.38V160.68H1571.38ZM1532.46 160.68H1531.46V161.68H1532.46V160.68ZM1532.46 139H1385.26V141H1532.46V139ZM1386.26 140V3.32399H1384.26V140H1386.26ZM1385.26 4.32399H1426.99V2.32399H1385.26V4.32399ZM1425.99 3.32399V106.912H1427.99V3.32399H1425.99ZM1426.99 107.912H1512.72V105.912H1426.99V107.912ZM1513.72 106.912V3.32399H1511.72V106.912H1513.72ZM1512.72 4.32399H1554.46V2.32399H1512.72V4.32399ZM1553.46 3.32399V106.912H1555.46V3.32399H1553.46ZM1554.46 107.912H1571.38V105.912H1554.46V107.912ZM1570.38 106.912V160.68H1572.38V106.912H1570.38ZM1571.38 159.68H1532.46V161.68H1571.38V159.68ZM1533.46 160.68V140H1531.46V160.68H1533.46ZM1575.97 3.32399V2.32399H1574.97V3.32399H1575.97ZM1617.71 3.32399H1618.71V2.32399H1617.71V3.32399ZM1617.71 103.528H1616.71V106.345L1618.48 104.159L1617.71 103.528ZM1699.11 3.32399V2.32399H1698.64L1698.34 2.69345L1699.11 3.32399ZM1760.78 3.32399H1761.78V2.32399H1760.78V3.32399ZM1760.78 140V141H1761.78V140H1760.78ZM1719.04 140H1718.04V141H1719.04V140ZM1719.04 40.548H1720.04V37.7624L1718.27 39.912L1719.04 40.548ZM1637.07 140V141H1637.54L1637.84 140.636L1637.07 140ZM1575.97 140H1574.97V141H1575.97V140ZM1575.97 4.32399H1617.71V2.32399H1575.97V4.32399ZM1616.71 3.32399V103.528H1618.71V3.32399H1616.71ZM1618.48 104.159L1699.89 3.95453L1698.34 2.69345L1616.93 102.897L1618.48 104.159ZM1699.11 4.32399H1760.78V2.32399H1699.11V4.32399ZM1759.78 3.32399V140H1761.78V3.32399H1759.78ZM1760.78 139H1719.04V141H1760.78V139ZM1720.04 140V40.548H1718.04V140H1720.04ZM1718.27 39.912L1636.3 139.364L1637.84 140.636L1719.81 41.184L1718.27 39.912ZM1637.07 139H1575.97V141H1637.07V139ZM1576.97 140V3.32399H1574.97V140H1576.97ZM1800.41 86.044L1800.64 87.0177L1800.62 85.0668L1800.41 86.044ZM1780.48 26.072L1779.53 25.7558L1779.53 25.765L1780.48 26.072ZM1790.07 12.348L1790.67 13.148L1790.67 13.148L1790.07 12.348ZM1807.37 5.392L1807.55 6.37545L1807.55 6.37545L1807.37 5.392ZM1943.48 3.32399H1944.48V2.32399H1943.48V3.32399ZM1943.48 140V141H1944.48V140H1943.48ZM1901.55 140H1900.55V141H1901.55V140ZM1901.55 105.032H1902.55V104.032H1901.55V105.032ZM1830.68 105.596L1830.83 106.584L1830.84 106.582L1830.68 105.596ZM1821.47 112.176L1822.39 112.547L1822.39 112.547L1821.47 112.176ZM1820.53 140V141H1821.53V140H1820.53ZM1778.79 140H1777.79V141H1778.79V140ZM1901.55 70.816V71.816H1902.55V70.816H1901.55ZM1901.55 37.352H1902.55V36.352H1901.55V37.352ZM1823.53 41.112L1822.8 40.4337L1822.79 40.4472L1822.77 40.4612L1823.53 41.112ZM1823.16 66.68L1823.96 66.0886L1823.95 66.0752L1823.94 66.0622L1823.16 66.68ZM1779.79 111.988C1779.79 105.207 1781.53 99.8114 1784.94 95.7074C1788.36 91.5971 1793.54 88.6759 1800.64 87.0177L1800.18 85.0703C1792.8 86.7961 1787.18 89.8909 1783.4 94.4286C1779.62 98.9726 1777.79 104.857 1777.79 111.988H1779.79ZM1800.62 85.0668C1792.2 83.2354 1786.64 79.2432 1783.42 73.5217L1781.68 74.5023C1785.23 80.8128 1791.33 85.0925 1800.2 87.0212L1800.62 85.0668ZM1783.42 73.5217C1780.16 67.7312 1778.66 59.2916 1778.66 48.068H1776.66C1776.66 59.4044 1778.17 68.2608 1781.68 74.5023L1783.42 73.5217ZM1778.66 48.068C1778.66 39.2943 1779.6 32.0745 1781.43 26.379L1779.53 25.765C1777.61 31.7255 1776.66 39.1697 1776.66 48.068H1778.66ZM1781.43 26.3882C1783.25 20.9168 1786.34 16.3954 1790.67 13.148L1789.47 11.548C1784.78 15.0686 1781.47 19.9472 1779.53 25.7558L1781.43 26.3882ZM1790.67 13.148C1795.03 9.8804 1800.51 7.67164 1807.55 6.37545L1807.18 4.40854C1799.93 5.74435 1794.14 8.04759 1789.47 11.548L1790.67 13.148ZM1807.55 6.37545C1814.62 5.07288 1823.2 4.32399 1833.69 4.32399V2.32399C1823.11 2.32399 1814.4 3.0791 1807.18 4.40854L1807.55 6.37545ZM1833.69 4.32399H1943.48V2.32399H1833.69V4.32399ZM1942.48 3.32399V140H1944.48V3.32399H1942.48ZM1943.48 139H1901.55V141H1943.48V139ZM1902.55 140V105.032H1900.55V140H1902.55ZM1901.55 104.032H1839.33V106.032H1901.55V104.032ZM1839.33 104.032C1835.91 104.032 1832.84 104.221 1830.51 104.61L1830.84 106.582C1833.02 106.219 1835.97 106.032 1839.33 106.032V104.032ZM1830.53 104.608C1827.96 105.003 1825.91 105.805 1824.25 107.052L1825.45 108.652C1826.79 107.643 1828.51 106.941 1830.83 106.584L1830.53 104.608ZM1824.25 107.052C1822.62 108.272 1821.37 109.729 1820.54 111.805L1822.39 112.547C1823.07 110.863 1824.07 109.688 1825.45 108.652L1824.25 107.052ZM1820.54 111.805C1819.71 113.874 1819.53 116.294 1819.53 119.132H1821.53C1821.53 116.33 1821.72 114.238 1822.39 112.547L1820.54 111.805ZM1819.53 119.132V140H1821.53V119.132H1819.53ZM1820.53 139H1778.79V141H1820.53V139ZM1779.79 140V111.988H1777.79V140H1779.79ZM1902.55 70.816V37.352H1900.55V70.816H1902.55ZM1901.55 36.352H1835.19V38.352H1901.55V36.352ZM1835.19 36.352C1829.62 36.352 1825.33 37.6916 1822.8 40.4337L1824.27 41.7903C1826.25 39.6444 1829.86 38.352 1835.19 38.352V36.352ZM1822.77 40.4612C1820.3 43.3424 1819.15 47.3734 1819.15 52.768H1821.15C1821.15 47.6346 1822.25 44.1456 1824.29 41.7628L1822.77 40.4612ZM1819.15 52.768C1819.15 59.3663 1820.08 64.3771 1822.37 67.2978L1823.94 66.0622C1822.1 63.7189 1821.15 59.3297 1821.15 52.768H1819.15ZM1822.35 67.2714C1824.71 70.4934 1829.09 71.816 1835.19 71.816V69.816C1829.25 69.816 1825.74 68.5066 1823.96 66.0886L1822.35 67.2714ZM1835.19 71.816H1901.55V69.816H1835.19V71.816Z" fill="white" fill-opacity="0.2" mask="url(#path-1-outside-1_10027_5405)"/>
</svg>
