<svg width="172" height="26" viewBox="0 0 172 26" fill="none" xmlns="http://www.w3.org/2000/svg">
<path d="M13.0489 1.42705C13.3483 0.505737 14.6517 0.50574 14.9511 1.42705L17.3677 8.86475C17.5016 9.27677 17.8855 9.55573 18.3188 9.55573H26.1392C27.1079 9.55573 27.5107 10.7953 26.727 11.3647L20.4001 15.9615C20.0496 16.2161 19.903 16.6675 20.0369 17.0795L22.4535 24.5172C22.7529 25.4385 21.6984 26.2047 20.9147 25.6353L14.5878 21.0385C14.2373 20.7839 13.7627 20.7839 13.4122 21.0385L7.08533 25.6353C6.30162 26.2047 5.24714 25.4385 5.54649 24.5172L7.96315 17.0795C8.09702 16.6675 7.95036 16.2161 7.59987 15.9615L1.27299 11.3647C0.489277 10.7953 0.892056 9.55573 1.86078 9.55573H9.68123C10.1145 9.55573 10.4984 9.27677 10.6323 8.86474L13.0489 1.42705Z" fill="#FFBF48"/>
<path d="M49.0489 1.42705C49.3483 0.505737 50.6517 0.50574 50.9511 1.42705L53.3677 8.86475C53.5016 9.27677 53.8855 9.55573 54.3188 9.55573H62.1392C63.1079 9.55573 63.5107 10.7953 62.727 11.3647L56.4001 15.9615C56.0496 16.2161 55.903 16.6675 56.0369 17.0795L58.4535 24.5172C58.7529 25.4385 57.6984 26.2047 56.9147 25.6353L50.5878 21.0385C50.2373 20.7839 49.7627 20.7839 49.4122 21.0385L43.0853 25.6353C42.3016 26.2047 41.2471 25.4385 41.5465 24.5172L43.9631 17.0795C44.097 16.6675 43.9504 16.2161 43.5999 15.9615L37.273 11.3647C36.4893 10.7953 36.8921 9.55573 37.8608 9.55573H45.6812C46.1145 9.55573 46.4984 9.27677 46.6323 8.86474L49.0489 1.42705Z" fill="#FFBF48"/>
<path d="M85.0489 1.42705C85.3483 0.505737 86.6517 0.50574 86.9511 1.42705L89.3677 8.86475C89.5016 9.27677 89.8855 9.55573 90.3188 9.55573H98.1392C99.1079 9.55573 99.5107 10.7953 98.727 11.3647L92.4001 15.9615C92.0496 16.2161 91.903 16.6675 92.0369 17.0795L94.4535 24.5172C94.7529 25.4385 93.6984 26.2047 92.9147 25.6353L86.5878 21.0385C86.2373 20.7839 85.7627 20.7839 85.4122 21.0385L79.0853 25.6353C78.3016 26.2047 77.2471 25.4385 77.5465 24.5172L79.9631 17.0795C80.097 16.6675 79.9504 16.2161 79.5999 15.9615L73.273 11.3647C72.4893 10.7953 72.8921 9.55573 73.8608 9.55573H81.6812C82.1145 9.55573 82.4984 9.27677 82.6323 8.86474L85.0489 1.42705Z" fill="#FFBF48"/>
<path d="M121.049 1.42705C121.348 0.505737 122.652 0.50574 122.951 1.42705L125.368 8.86475C125.502 9.27677 125.886 9.55573 126.319 9.55573H134.139C135.108 9.55573 135.511 10.7953 134.727 11.3647L128.4 15.9615C128.05 16.2161 127.903 16.6675 128.037 17.0795L130.454 24.5172C130.753 25.4385 129.698 26.2047 128.915 25.6353L122.588 21.0385C122.237 20.7839 121.763 20.7839 121.412 21.0385L115.085 25.6353C114.302 26.2047 113.247 25.4385 113.546 24.5172L115.963 17.0795C116.097 16.6675 115.95 16.2161 115.6 15.9615L109.273 11.3647C108.489 10.7953 108.892 9.55573 109.861 9.55573H117.681C118.114 9.55573 118.498 9.27677 118.632 8.86474L121.049 1.42705Z" fill="#FFBF48"/>
<path d="M158.476 1.58156L160.892 9.01925C161.093 9.63729 161.669 10.0557 162.319 10.0557H170.139C170.624 10.0557 170.825 10.6755 170.433 10.9602L164.106 15.557C163.58 15.939 163.361 16.616 163.561 17.234L165.978 24.6717C166.128 25.1324 165.6 25.5154 165.209 25.2307L158.882 20.634C158.356 20.252 157.644 20.252 157.118 20.634L150.791 25.2307C150.4 25.5154 149.872 25.1324 150.022 24.6717L152.439 17.234C152.639 16.616 152.419 15.939 151.894 15.557L145.567 10.9602C145.175 10.6755 145.376 10.0557 145.861 10.0557H153.681C154.331 10.0557 154.907 9.63729 155.108 9.01925L157.524 1.58156C157.674 1.1209 158.326 1.1209 158.476 1.58156Z" stroke="#FFBF48"/>
<path d="M122.476 1.58156L124.892 9.01925C125.093 9.63729 125.669 10.0557 126.319 10.0557H134.139C134.624 10.0557 134.825 10.6755 134.433 10.9602L128.106 15.557C127.58 15.939 127.361 16.616 127.561 17.234L129.978 24.6717C130.128 25.1324 129.6 25.5154 129.209 25.2307L122.882 20.634C122.356 20.252 121.644 20.252 121.118 20.634L114.791 25.2307C114.4 25.5154 113.872 25.1324 114.022 24.6717L116.439 17.234C116.639 16.616 116.419 15.939 115.894 15.557L109.567 10.9602C109.175 10.6755 109.376 10.0557 109.861 10.0557H117.681C118.331 10.0557 118.907 9.63729 119.108 9.01925L121.524 1.58156C121.674 1.1209 122.326 1.1209 122.476 1.58156Z" stroke="#FFBF48"/>
<path d="M86.4755 1.58156L88.8922 9.01925C89.093 9.63729 89.6689 10.0557 90.3188 10.0557H98.1392C98.6236 10.0557 98.825 10.6755 98.4331 10.9602L92.1062 15.557C91.5805 15.939 91.3605 16.616 91.5613 17.234L93.978 24.6717C94.1277 25.1324 93.6004 25.5154 93.2086 25.2307L86.8817 20.634C86.3559 20.252 85.6441 20.252 85.1183 20.634L78.7914 25.2307C78.3996 25.5154 77.8723 25.1324 78.022 24.6717L80.4387 17.234C80.6395 16.616 80.4195 15.939 79.8938 15.557L73.5669 10.9602C73.175 10.6755 73.3764 10.0557 73.8608 10.0557H81.6812C82.3311 10.0557 82.907 9.63729 83.1078 9.01925L85.5245 1.58156C85.6741 1.1209 86.3259 1.1209 86.4755 1.58156Z" stroke="#FFBF48"/>
<path d="M50.4755 1.58156L52.8922 9.01925C53.093 9.63729 53.6689 10.0557 54.3188 10.0557H62.1392C62.6236 10.0557 62.825 10.6755 62.4331 10.9602L56.1062 15.557C55.5805 15.939 55.3605 16.616 55.5613 17.234L57.978 24.6717C58.1277 25.1324 57.6004 25.5154 57.2086 25.2307L50.8817 20.634C50.3559 20.252 49.6441 20.252 49.1183 20.634L42.7914 25.2307C42.3996 25.5154 41.8723 25.1324 42.022 24.6717L44.4387 17.234C44.6395 16.616 44.4195 15.939 43.8938 15.557L37.5669 10.9602C37.175 10.6755 37.3764 10.0557 37.8608 10.0557H45.6812C46.3311 10.0557 46.907 9.63729 47.1078 9.01925L49.5245 1.58156C49.6741 1.1209 50.3259 1.1209 50.4755 1.58156Z" stroke="#FFBF48"/>
<path d="M14.4755 1.58156L16.8922 9.01925C17.093 9.63729 17.6689 10.0557 18.3188 10.0557H26.1392C26.6236 10.0557 26.825 10.6755 26.4331 10.9602L20.1062 15.557C19.5805 15.939 19.3605 16.616 19.5613 17.234L21.978 24.6717C22.1277 25.1324 21.6004 25.5154 21.2086 25.2307L14.8817 20.634C14.3559 20.252 13.6441 20.252 13.1183 20.634L6.79144 25.2307C6.39959 25.5154 5.87234 25.1324 6.02202 24.6717L8.43867 17.234C8.63949 16.616 8.4195 15.939 7.89377 15.557L1.56688 10.9602C1.17503 10.6755 1.37641 10.0557 1.86078 10.0557H9.68123C10.3311 10.0557 10.907 9.63729 11.1078 9.01925L13.5245 1.58156C13.6741 1.1209 14.3259 1.1209 14.4755 1.58156Z" stroke="#FFBF48"/>
</svg>
