<svg width="170" height="30" viewBox="0 0 170 30" fill="none" xmlns="http://www.w3.org/2000/svg">
<path d="M15 1.61803L17.7799 10.1738C17.9138 10.5858 18.2978 10.8647 18.731 10.8647H27.727L20.4491 16.1525C20.0986 16.4071 19.9519 16.8585 20.0858 17.2705L22.8657 25.8262L15.5878 20.5385C15.2373 20.2839 14.7627 20.2839 14.4122 20.5385L7.13428 25.8262L9.9142 17.2705C10.0481 16.8585 9.90142 16.4071 9.55093 16.1525L2.27299 10.8647L11.269 10.8647C11.7022 10.8647 12.0862 10.5858 12.2201 10.1738L15 1.61803Z" stroke="white"/>
<path d="M49.9385 1.61803L52.7184 10.1738C52.8523 10.5858 53.2362 10.8647 53.6695 10.8647H62.6655L55.3875 16.1525C55.0371 16.4071 54.8904 16.8585 55.0243 17.2705L57.8042 25.8262L50.5263 20.5385C50.1758 20.2839 49.7012 20.2839 49.3507 20.5385L42.0728 25.8262L44.8527 17.2705C44.9866 16.8585 44.8399 16.4071 44.4894 16.1525L37.2115 10.8647L46.2075 10.8647C46.6407 10.8647 47.0247 10.5858 47.1586 10.1738L49.9385 1.61803Z" stroke="white"/>
<path d="M84.877 1.61803L87.6569 10.1738C87.7908 10.5858 88.1747 10.8647 88.6079 10.8647H97.604L90.326 16.1525C89.9755 16.4071 89.8289 16.8585 89.9628 17.2705L92.7427 25.8262L85.4647 20.5385C85.1143 20.2839 84.6397 20.2839 84.2892 20.5385L77.0112 25.8262L79.7912 17.2705C79.925 16.8585 79.7784 16.4071 79.4279 16.1525L72.1499 10.8647L81.146 10.8647C81.5792 10.8647 81.9632 10.5858 82.097 10.1738L84.877 1.61803Z" stroke="white"/>
<path d="M119.815 1.61803L122.595 10.1738C122.729 10.5858 123.113 10.8647 123.546 10.8647H132.542L125.264 16.1525C124.914 16.4071 124.767 16.8585 124.901 17.2705L127.681 25.8262L120.403 20.5385C120.053 20.2839 119.578 20.2839 119.228 20.5385L111.95 25.8262L114.73 17.2705C114.864 16.8585 114.717 16.4071 114.366 16.1525L107.088 10.8647L116.084 10.8647C116.518 10.8647 116.902 10.5858 117.036 10.1738L119.815 1.61803Z" stroke="white"/>
<path d="M154.755 1.61803L157.535 10.1738C157.669 10.5858 158.053 10.8647 158.486 10.8647H167.482L160.204 16.1525C159.853 16.4071 159.707 16.8585 159.841 17.2705L162.621 25.8262L155.343 20.5385C154.992 20.2839 154.518 20.2839 154.167 20.5385L146.889 25.8262L149.669 17.2705C149.803 16.8585 149.656 16.4071 149.306 16.1525L142.028 10.8647L151.024 10.8647C151.457 10.8647 151.841 10.5858 151.975 10.1738L154.755 1.61803Z" stroke="white"/>
</svg>
