<svg width="172" height="26" viewBox="0 0 172 26" fill="none" xmlns="http://www.w3.org/2000/svg">
<path d="M13.0489 1.42705C13.3483 0.505737 14.6517 0.50574 14.9511 1.42705L17.3677 8.86475C17.5016 9.27677 17.8855 9.55573 18.3188 9.55573H26.1392C27.1079 9.55573 27.5107 10.7953 26.727 11.3647L20.4001 15.9615C20.0496 16.2161 19.903 16.6675 20.0369 17.0795L22.4535 24.5172C22.7529 25.4385 21.6984 26.2047 20.9147 25.6353L14.5878 21.0385C14.2373 20.7839 13.7627 20.7839 13.4122 21.0385L7.08533 25.6353C6.30162 26.2047 5.24714 25.4385 5.54649 24.5172L7.96315 17.0795C8.09702 16.6675 7.95036 16.2161 7.59987 15.9615L1.27299 11.3647C0.489277 10.7953 0.892056 9.55573 1.86078 9.55573H9.68123C10.1145 9.55573 10.4984 9.27677 10.6323 8.86474L13.0489 1.42705Z" fill="#FFBF48"/>
<path d="M49.0489 1.42705C49.3483 0.505737 50.6517 0.50574 50.9511 1.42705L53.3677 8.86475C53.5016 9.27677 53.8855 9.55573 54.3188 9.55573H62.1392C63.1079 9.55573 63.5107 10.7953 62.727 11.3647L56.4001 15.9615C56.0496 16.2161 55.903 16.6675 56.0369 17.0795L58.4535 24.5172C58.7529 25.4385 57.6984 26.2047 56.9147 25.6353L50.5878 21.0385C50.2373 20.7839 49.7627 20.7839 49.4122 21.0385L43.0853 25.6353C42.3016 26.2047 41.2471 25.4385 41.5465 24.5172L43.9631 17.0795C44.097 16.6675 43.9504 16.2161 43.5999 15.9615L37.273 11.3647C36.4893 10.7953 36.8921 9.55573 37.8608 9.55573H45.6812C46.1145 9.55573 46.4984 9.27677 46.6323 8.86474L49.0489 1.42705Z" fill="#FFBF48"/>
<path d="M85.0489 1.42705C85.3483 0.505737 86.6517 0.50574 86.9511 1.42705L89.3677 8.86475C89.5016 9.27677 89.8855 9.55573 90.3188 9.55573H98.1392C99.1079 9.55573 99.5107 10.7953 98.727 11.3647L92.4001 15.9615C92.0496 16.2161 91.903 16.6675 92.0369 17.0795L94.4535 24.5172C94.7529 25.4385 93.6984 26.2047 92.9147 25.6353L86.5878 21.0385C86.2373 20.7839 85.7627 20.7839 85.4122 21.0385L79.0853 25.6353C78.3016 26.2047 77.2471 25.4385 77.5465 24.5172L79.9631 17.0795C80.097 16.6675 79.9504 16.2161 79.5999 15.9615L73.273 11.3647C72.4893 10.7953 72.8921 9.55573 73.8608 9.55573H81.6812C82.1145 9.55573 82.4984 9.27677 82.6323 8.86474L85.0489 1.42705Z" fill="#FFBF48"/>
<path d="M121.049 1.42705C121.348 0.505737 122.652 0.50574 122.951 1.42705L125.368 8.86475C125.502 9.27677 125.886 9.55573 126.319 9.55573H134.139C135.108 9.55573 135.511 10.7953 134.727 11.3647L128.4 15.9615C128.05 16.2161 127.903 16.6675 128.037 17.0795L130.454 24.5172C130.753 25.4385 129.698 26.2047 128.915 25.6353L122.588 21.0385C122.237 20.7839 121.763 20.7839 121.412 21.0385L115.085 25.6353C114.302 26.2047 113.247 25.4385 113.546 24.5172L115.963 17.0795C116.097 16.6675 115.95 16.2161 115.6 15.9615L109.273 11.3647C108.489 10.7953 108.892 9.55573 109.861 9.55573H117.681C118.114 9.55573 118.498 9.27677 118.632 8.86474L121.049 1.42705Z" fill="#FFBF48"/>
<path d="M157.049 1.42705C157.348 0.505737 158.652 0.50574 158.951 1.42705L161.368 8.86475C161.502 9.27677 161.886 9.55573 162.319 9.55573H170.139C171.108 9.55573 171.511 10.7953 170.727 11.3647L164.4 15.9615C164.05 16.2161 163.903 16.6675 164.037 17.0795L166.454 24.5172C166.753 25.4385 165.698 26.2047 164.915 25.6353L158.588 21.0385C158.237 20.7839 157.763 20.7839 157.412 21.0385L151.085 25.6353C150.302 26.2047 149.247 25.4385 149.546 24.5172L151.963 17.0795C152.097 16.6675 151.95 16.2161 151.6 15.9615L145.273 11.3647C144.489 10.7953 144.892 9.55573 145.861 9.55573H153.681C154.114 9.55573 154.498 9.27677 154.632 8.86474L157.049 1.42705Z" fill="#FFBF48"/>
</svg>
