<svg width="170" height="30" viewBox="0 0 170 30" fill="none" xmlns="http://www.w3.org/2000/svg">
<path d="M14.5245 1.46353C14.6741 1.00287 15.3259 1.00287 15.4755 1.46353L18.2555 10.0193C18.3224 10.2253 18.5144 10.3647 18.731 10.3647H27.727C28.2114 10.3647 28.4128 10.9846 28.0209 11.2693L20.743 16.557C20.5677 16.6843 20.4944 16.91 20.5613 17.116L23.3413 25.6717C23.4909 26.1324 22.9637 26.5154 22.5718 26.2307L15.2939 20.943C15.1186 20.8157 14.8814 20.8157 14.7061 20.943L7.42817 26.2307C7.03631 26.5154 6.50907 26.1324 6.65875 25.6717L9.43867 17.116C9.50561 16.91 9.43228 16.6843 9.25704 16.557L1.9791 11.2693C1.58725 10.9846 1.78863 10.3647 2.27299 10.3647H11.269C11.4856 10.3647 11.6776 10.2253 11.7445 10.0193L14.5245 1.46353Z" fill="#A048FF"/>
<path d="M49.4629 1.46353C49.6126 1.00287 50.2643 1.00287 50.414 1.46353L53.1939 10.0193C53.2609 10.2253 53.4528 10.3647 53.6695 10.3647H62.6655C63.1498 10.3647 63.3512 10.9846 62.9594 11.2693L55.6814 16.557C55.5062 16.6843 55.4329 16.91 55.4998 17.116L58.2797 25.6717C58.4294 26.1324 57.9022 26.5154 57.5103 26.2307L50.2324 20.943C50.0571 20.8157 49.8198 20.8157 49.6446 20.943L42.3666 26.2307C41.9748 26.5154 41.4475 26.1324 41.5972 25.6717L44.3772 17.116C44.4441 16.91 44.3708 16.6843 44.1955 16.557L36.9176 11.2693C36.5257 10.9846 36.7271 10.3647 37.2115 10.3647H46.2075C46.4241 10.3647 46.6161 10.2253 46.683 10.0193L49.4629 1.46353Z" fill="#A048FF"/>
<path d="M84.4014 1.46353C84.5511 1.00287 85.2028 1.00287 85.3525 1.46353L88.1324 10.0193C88.1993 10.2253 88.3913 10.3647 88.6079 10.3647H97.604C98.0883 10.3647 98.2897 10.9846 97.8979 11.2693L90.6199 16.557C90.4447 16.6843 90.3713 16.91 90.4383 17.116L93.2182 25.6717C93.3679 26.1324 92.8406 26.5154 92.4488 26.2307L85.1708 20.943C84.9956 20.8157 84.7583 20.8157 84.5831 20.943L77.3051 26.2307C76.9133 26.5154 76.386 26.1324 76.5357 25.6717L79.3156 17.116C79.3826 16.91 79.3092 16.6843 79.134 16.557L71.8561 11.2693C71.4642 10.9846 71.6656 10.3647 72.1499 10.3647H81.146C81.3626 10.3647 81.5546 10.2253 81.6215 10.0193L84.4014 1.46353Z" fill="#A048FF"/>
<path d="M119.34 1.46353C119.49 1.00287 120.141 1.00287 120.291 1.46353L123.071 10.0193C123.138 10.2253 123.33 10.3647 123.546 10.3647H132.542C133.027 10.3647 133.228 10.9846 132.836 11.2693L125.558 16.557C125.383 16.6843 125.31 16.91 125.377 17.116L128.157 25.6717C128.306 26.1324 127.779 26.5154 127.387 26.2307L120.109 20.943C119.934 20.8157 119.697 20.8157 119.522 20.943L112.244 26.2307C111.852 26.5154 111.325 26.1324 111.474 25.6717L114.254 17.116C114.321 16.91 114.248 16.6843 114.072 16.557L106.795 11.2693C106.403 10.9846 106.604 10.3647 107.088 10.3647H116.084C116.301 10.3647 116.493 10.2253 116.56 10.0193L119.34 1.46353Z" fill="#A048FF"/>
<path d="M154.279 1.46353C154.429 1.00287 155.081 1.00287 155.23 1.46353L158.01 10.0193C158.077 10.2253 158.269 10.3647 158.486 10.3647H167.482C167.966 10.3647 168.168 10.9846 167.776 11.2693L160.498 16.557C160.323 16.6843 160.249 16.91 160.316 17.116L163.096 25.6717C163.246 26.1324 162.719 26.5154 162.327 26.2307L155.049 20.943C154.874 20.8157 154.636 20.8157 154.461 20.943L147.183 26.2307C146.791 26.5154 146.264 26.1324 146.414 25.6717L149.194 17.116C149.26 16.91 149.187 16.6843 149.012 16.557L141.734 11.2693C141.342 10.9846 141.544 10.3647 142.028 10.3647H151.024C151.241 10.3647 151.432 10.2253 151.499 10.0193L154.279 1.46353Z" fill="#A048FF"/>
</svg>
