<svg width="170" height="30" viewBox="0 0 170 30" fill="none" xmlns="http://www.w3.org/2000/svg">
<path d="M14.5245 1.46353C14.6741 1.00287 15.3259 1.00287 15.4755 1.46353L18.2555 10.0193C18.3224 10.2253 18.5144 10.3647 18.731 10.3647H27.727C28.2114 10.3647 28.4128 10.9846 28.0209 11.2693L20.743 16.557C20.5677 16.6843 20.4944 16.91 20.5613 17.116L23.3413 25.6717C23.4909 26.1324 22.9637 26.5154 22.5718 26.2307L15.2939 20.943C15.1186 20.8157 14.8814 20.8157 14.7061 20.943L7.42817 26.2307C7.03631 26.5154 6.50907 26.1324 6.65875 25.6717L9.43867 17.116C9.50561 16.91 9.43228 16.6843 9.25704 16.557L1.9791 11.2693C1.58725 10.9846 1.78863 10.3647 2.27299 10.3647H11.269C11.4856 10.3647 11.6776 10.2253 11.7445 10.0193L14.5245 1.46353Z" fill="#A048FF"/>
<path d="M49.4629 1.46353C49.6126 1.00287 50.2643 1.00287 50.414 1.46353L53.1939 10.0193C53.2609 10.2253 53.4528 10.3647 53.6695 10.3647H62.6655C63.1498 10.3647 63.3512 10.9846 62.9594 11.2693L55.6814 16.557C55.5062 16.6843 55.4329 16.91 55.4998 17.116L58.2797 25.6717C58.4294 26.1324 57.9022 26.5154 57.5103 26.2307L50.2324 20.943C50.0571 20.8157 49.8198 20.8157 49.6446 20.943L42.3666 26.2307C41.9748 26.5154 41.4475 26.1324 41.5972 25.6717L44.3772 17.116C44.4441 16.91 44.3708 16.6843 44.1955 16.557L36.9176 11.2693C36.5257 10.9846 36.7271 10.3647 37.2115 10.3647H46.2075C46.4241 10.3647 46.6161 10.2253 46.683 10.0193L49.4629 1.46353Z" fill="#A048FF"/>
<path d="M84.4014 1.46353C84.5511 1.00287 85.2028 1.00287 85.3525 1.46353L88.1324 10.0193C88.1993 10.2253 88.3913 10.3647 88.6079 10.3647H97.604C98.0883 10.3647 98.2897 10.9846 97.8979 11.2693L90.6199 16.557C90.4447 16.6843 90.3713 16.91 90.4383 17.116L93.2182 25.6717C93.3679 26.1324 92.8406 26.5154 92.4488 26.2307L85.1708 20.943C84.9956 20.8157 84.7583 20.8157 84.5831 20.943L77.3051 26.2307C76.9133 26.5154 76.386 26.1324 76.5357 25.6717L79.3156 17.116C79.3826 16.91 79.3092 16.6843 79.134 16.557L71.8561 11.2693C71.4642 10.9846 71.6656 10.3647 72.1499 10.3647H81.146C81.3626 10.3647 81.5546 10.2253 81.6215 10.0193L84.4014 1.46353Z" fill="#A048FF"/>
<path d="M119.815 1.61803L122.595 10.1738C122.729 10.5858 123.113 10.8647 123.546 10.8647H132.542L125.264 16.1525C124.914 16.4071 124.767 16.8585 124.901 17.2705L127.681 25.8262L120.403 20.5385C120.053 20.2839 119.578 20.2839 119.228 20.5385L111.95 25.8262L114.73 17.2705C114.864 16.8585 114.717 16.4071 114.366 16.1525L107.088 10.8647L116.084 10.8647C116.518 10.8647 116.902 10.5858 117.036 10.1738L119.815 1.61803Z" stroke="white"/>
<path d="M154.755 1.61803L157.535 10.1738C157.669 10.5858 158.053 10.8647 158.486 10.8647H167.482L160.204 16.1525C159.853 16.4071 159.707 16.8585 159.841 17.2705L162.621 25.8262L155.343 20.5385C154.992 20.2839 154.518 20.2839 154.167 20.5385L146.889 25.8262L149.669 17.2705C149.803 16.8585 149.656 16.4071 149.306 16.1525L142.028 10.8647L151.024 10.8647C151.457 10.8647 151.841 10.5858 151.975 10.1738L154.755 1.61803Z" stroke="white"/>
</svg>
