<svg width="146" height="39" viewBox="0 0 146 39" fill="none" xmlns="http://www.w3.org/2000/svg">
<path d="M139.872 9.07901H133.67V3.92163H124.356L118.153 9.07901H112.451L109.861 11.6577V9.07901H104.703V3.92163H86.0738V9.07901H65.3767L60.1968 3.92163H48.8145V26.5869L53.9944 31.9932L63.3093 36.8792H69.5116V35.3409L72.6241 36.8792H85.0514L87.1189 33.7802L88.1639 36.8792H95.3887V33.7802L98.5012 36.8792H106.771L107.293 33.7802L109.884 36.8792H120.22L123.333 33.7802V36.8792H127.468L130.58 33.7802V36.8792H137.828L145.076 30.7038V14.2138L139.872 9.07901ZM62.2641 17.3127H57.0842V23.488H62.2641V29.6633H55.0167L50.8818 25.5465V5.98006H57.0842V11.1374H62.2641V17.3127ZM86.0738 26.0667L82.4387 29.6859H64.3316V11.1374H70.5339V23.5107H72.6014V11.1374H78.8037V23.5107H80.8712V11.1374H86.0738V26.0667ZM94.3435 29.6859H88.1413V11.1374H94.3435V29.6859ZM94.3435 9.07901H88.1413V5.98006H94.3435V9.07901ZM107.793 17.3127H102.613V23.488H107.793V29.6633H100.546L96.411 25.5465V5.98006H102.613V11.1374H107.793V17.3127ZM123.31 17.3127H116.063V23.488H123.31V29.6633H113.996L109.861 25.5465V15.2543L113.996 11.1374H123.31V17.3127ZM142.986 29.6859H136.782V17.3127H131.602V29.6859H125.378V5.98006H131.58V11.1374H138.828L142.963 15.2543V29.6859H142.986Z" fill="white"/>
<path d="M2.6156 0.449219L0 7.09066V33.6533H9.58606V38.6368H14.8197L20.0481 33.6533H27.8929L38.3547 23.6955V0.449219H2.6156ZM6.1003 3.76784H34.8685V22.0317L28.7649 27.8438H19.1773L13.9505 32.8203V27.8438H6.1003V3.76784ZM15.6903 20.3737H19.1773V10.4128H15.6903V20.3737ZM25.2784 20.3737H28.7649V10.4128H25.2784V20.3737Z" fill="white"/>
</svg>
