<?xml version="1.0" encoding="utf-8"?>
<!-- Generator: Adobe Illustrator 27.5.0, SVG Export Plug-In . SVG Version: 6.00 Build 0)  -->
<svg version="1.1" id="Слой_1" xmlns="http://www.w3.org/2000/svg" xmlns:xlink="http://www.w3.org/1999/xlink" x="0px" y="0px"
	 viewBox="0 0 710 230" style="enable-background:new 0 0 710 230;" xml:space="preserve">
<style type="text/css">
	.st0{fill:#FFFFFF;}
	.st1{fill:#E6A540;}
	.st2{fill:none;}
</style>
<g>
	<path class="st0" d="M317.2,220.6h-54.9l34.3-211h54.9L317.2,220.6z M216.1,9.6l-52.4,145.1l-6.2-31.3l0,0L139,28.6
		c0,0-2.2-19-26.1-19H26.4l-1,3.6c0,0,26.5,5.5,57.5,24.1l47.7,183.3h57.2l87.4-211L216.1,9.6L216.1,9.6z M648.2,220.6h50.4l-44-211
		h-44.2C590,9.6,585,25.3,585,25.3l-81.9,195.3h57.3l11.5-31.3h69.8L648.2,220.6L648.2,220.6z M587.7,145.9l28.9-79l16.2,79H587.7z
		 M507.5,60.3l7.8-45.3c0,0-24.2-9.2-49.4-9.2c-27.3,0-92,11.9-92,69.9c0,54.5,76,55.2,76,83.8s-68.2,23.5-90.6,5.4l-8.2,47.4
		c0,0,24.5,11.9,62,11.9s94-19.4,94-72.2c0-54.9-76.7-60-76.7-83.8C430.5,44.3,484,47.4,507.5,60.3L507.5,60.3z"/>
</g>
<path class="st1" d="M157.5,123.5L139,28.6c0,0-2.2-19-26.1-19H26.4l-1,3.6c0,0,41.6,8.6,81.5,40.9
	C145.1,85,157.5,123.5,157.5,123.5z"/>
<path class="st2" d="M-38-285h800v800H-38V-285z"/>
</svg>
