<?xml version="1.0" encoding="utf-8"?>
<!-- Generator: Adobe Illustrator 27.5.0, SVG Export Plug-In . SVG Version: 6.00 Build 0)  -->
<svg version="1.1" id="Capa_1" xmlns="http://www.w3.org/2000/svg" xmlns:xlink="http://www.w3.org/1999/xlink" x="0px" y="0px"
	 viewBox="0 0 800 210.6" style="enable-background:new 0 0 800 210.6;" xml:space="preserve" fill="#FFFFFF">
<g>
	<g id="Capa_1_1_">
		<g id="Layer_1_copy_32_">
			<path d="M128.8,85.6c-18,0-27.3,13.2-27.3,31.5c0,19,8.3,31.5,28.5,31.5c8.6,0,15.9-2.4,21.3-5.6v-9.1
				c-6.6,3.9-12.6,6.2-19.1,6.2c-12.4,0-18.3-6.4-18.3-20.8H153V115C153,95.3,143.8,85.6,128.8,85.6z M114.1,111.3
				c1.3-12,7-17.7,14.3-17.7c6.5,0,12.6,5,13.2,17.7H114.1z M192.7,85.6c-6.5,0-12.6,2.5-16.2,4.4V55.8l-12.5,3v83.9
				c7.2,3.8,17.1,5.9,23.4,5.9c17.4,0,28.2-11,28.2-33.4C215.6,95.9,207.6,85.6,192.7,85.6z M187.4,140.2c-3,0-7.2-0.2-11-1.9V98.9
				c4.8-2.6,8.3-4,13.1-4c8.1,0,13.6,4.9,13.6,20.2C203,134.6,196.3,140.2,187.4,140.2z M441.5,103.6v43.5H429v-40.7
				c0-9.5-4.7-11.2-10.8-11.2c-4.8,0-10.9,2.2-14.7,4.3v47.6H391V94.5c5.4-3.2,16.8-8.9,30.6-8.9C436,85.6,441.5,91.3,441.5,103.6z
				 M296.6,61.9h14.9v85.2h-13V85.3h-1.1L273,147.1h-7.7l-24.5-60.3h-1.1v60.3h-10.8V61.9h14.5l26.9,67.2h0.6L296.6,61.9z
				 M352.2,85.6c-15.9,0-27.4,10.5-27.4,31.5c0,20.5,11,31.5,27.4,31.5c16.5,0,27.4-11,27.4-31.5C379.6,96.1,368,85.6,352.2,85.6z
				 M352.2,140.2c-8.5,0-14.8-6.6-14.8-23.1c0-16.2,6.9-23.1,14.8-23.1c8.2,0,14.8,6.8,14.8,23.1
				C366.9,133.6,360.7,140.2,352.2,140.2z M738.5,163.5l21.2,24.2c-4.2,3.3-8.8,6.4-13.9,9.2c-15.3,8.7-33.1,13.7-51.9,13.7
				c-58,0-105.3-47.3-105.3-105.3C588.6,47.3,635.9,0,693.9,0c16.5,0,32.2,3.8,46.2,10.7c2.2,1,4.4,2.2,6.5,3.4l-9.7,8.7L722.4,7.7
				l-24.6,21.9l-14.6-15.9L637.4,55l29.4,32.4l-11.6,10.1l28.9,32.4l-11.5,10.1l41.3,46L738.5,163.5z M788.7,98.1l11.3,12.5
				l-12.5,11.3l-11.3-12.5L788.7,98.1z M550.9,87.6h12.9l-21.7,60.1c-6,16.6-13.3,25.2-27.1,25.2v-9.8c8.2,0,13.2-6.5,16.1-15.4
				L508,87.7h13.2l15.4,44.2h0.7L550.9,87.6z M479.9,85.6c-18,0-27.3,13.2-27.3,31.5c0,19,8.3,31.5,28.5,31.5
				c8.6,0,15.8-2.4,21.2-5.6v-9.1c-6.6,3.9-12.6,6.2-19.1,6.2c-12.4,0-18.3-6.4-18.3-20.8h39.2V115
				C504.2,95.3,494.9,85.6,479.9,85.6z M465.2,111.3c1.3-12,7-17.7,14.3-17.7c6.5,0,12.6,5,13.2,17.7H465.2z M771.4,142.3l16.9,18.8
				L769.5,178l-16.9-18.8L771.4,142.3z M721.5,26.8l16.9,18.8l-18.8,16.9l-16.9-18.8L721.5,26.8z M681.8,33.3l22.5,25l-25,22.5
				l-22.5-25L681.8,33.3z M737,100.3L720,81.5l18.8-16.9l16.9,18.8L737,100.3z M760.2,72.2l12.5-11.3l11.3,12.5l-12.5,11.3
				L760.2,72.2z M83.9,61.9H98l-19.5,85.2h-13l-16.3-60h-0.8l-15.9,60h-13L0,61.9h13.5l13.5,63.6h0.8l15.6-63.6h10.7l16.7,63.6h0.8
				L83.9,61.9z M753,140l-16.9-18.8l18.8-16.9l16.9,18.8L753,140z M744.2,35l12.5-11.3L768,36.2l-12.5,11.3L744.2,35z M697.2,123.7
				l-22.5-25l25-22.6l22.5,25L697.2,123.7z M715.1,167l-22.5-25l25-22.5l22.5,25L715.1,167z"/>
		</g>
	</g>
</g>
</svg>
